<svg width="1000" height="416" viewBox="0 0 1000 416" fill="none" xmlns="http://www.w3.org/2000/svg">
<g clip-path="url(#clip0)">
<path d="M71.6817 360.755L48.7529 359.226L56.3959 393.619L82.3816 382.919L71.6817 360.755Z" fill="#FFB9B9"/>
<path d="M281.864 296.554L228.363 244.581L197.791 268.275L137.411 340.883L144.29 351.583L217.662 301.903L267.342 366.869L314.728 343.176L281.864 296.554Z" fill="#2F2E41"/>
<path opacity="0.1" d="M281.864 296.554L228.363 244.581L197.791 268.275L137.411 340.883L144.29 351.583L217.662 301.903L267.342 366.869L314.728 343.176L281.864 296.554Z" fill="black"/>
<path d="M286.45 330.947L279.571 336.297L223.777 317.189L210.784 311.839L184.798 317.189C184.798 317.189 184.798 295.789 209.255 296.553L234.477 302.668L264.285 304.96L286.45 330.947Z" fill="#FFB9B9"/>
<path d="M336.129 387.505L319.314 398.205H299.442L206.962 363.811L71.6813 388.269L67.8594 359.225L191.676 304.961L300.207 340.883L336.129 387.505Z" fill="#2F2E41"/>
<path d="M227.599 251.46L216.134 253.753L213.636 250.839C211.658 248.531 210.405 245.691 210.034 242.675C209.662 239.659 210.189 236.6 211.548 233.881V233.881L243.649 191.845C243.649 191.845 252.82 171.209 267.342 179.616C281.864 188.024 255.113 201.781 255.113 201.781L239.063 227.003L240.592 239.996L227.599 251.46Z" fill="#FFB9B9"/>
<path d="M300.207 201.78C316.669 201.78 330.015 188.435 330.015 171.973C330.015 155.51 316.669 142.165 300.207 142.165C283.745 142.165 270.399 155.51 270.399 171.973C270.399 188.435 283.745 201.78 300.207 201.78Z" fill="#FFB9B9"/>
<path d="M286.832 193.756L300.589 226.62L333.454 212.863C333.454 212.863 322.754 186.877 322.754 186.113C322.754 185.348 286.832 193.756 286.832 193.756Z" fill="#FFB9B9"/>
<path d="M377.333 290.982C377.332 308.971 374.498 326.849 368.933 343.956L366.701 350.819L356.001 399.734L344.537 402.791L336.129 392.091L319.315 379.862L307.086 359.991L296.6 342.519L293.329 337.062L281.864 279.739L238.299 255.282L223.777 252.989L226.835 244.582L239.828 227.003L252.821 225.474L256.642 222.417L259.699 223.945L271.928 217.067L275.75 218.595L298.098 220.674L311.672 217.831L331.192 207.353L339.186 208.659L366.701 231.588C373.735 250.6 377.335 270.711 377.333 290.982V290.982Z" fill="#575A89"/>
<path d="M55.7909 372.59C55.7909 372.59 62.6365 360.987 59.7451 359.633C56.8536 358.278 44.5742 352.879 44.5742 352.879L26.5665 346.911C26.5665 346.911 0.582629 308.293 0.0122783 341.876C-0.558073 375.458 18.9317 383.53 18.9317 383.53C18.9317 383.53 36.3143 420.939 46.1608 414.974C56.0072 409.009 65.8601 388.759 65.8601 388.759C65.8601 388.759 48.1039 379.214 55.7909 372.59Z" fill="#2F2E41"/>
<path opacity="0.1" d="M368.993 284.324L339.95 303.432L296.599 342.518L293.328 337.061L284.156 291.203H286.449L310.143 247.639L368.993 284.324Z" fill="black"/>
<path d="M310.143 243.053L286.45 286.617H278.043L272.693 301.903L260.464 304.961L293.329 340.883L339.95 298.846L368.994 279.738L310.143 243.053Z" fill="#575A89"/>
<path d="M277.022 149.809L273.793 151.052C273.296 150.716 272.871 150.284 272.544 149.781C272.216 149.279 271.992 148.716 271.885 148.125C271.777 147.535 271.789 146.929 271.919 146.344C272.048 145.758 272.294 145.204 272.64 144.714L266.672 144.435C270.503 139.333 275.374 135.102 280.963 132.023C286.551 128.943 292.73 127.086 299.09 126.573C305.45 126.061 311.847 126.905 317.856 129.049C323.866 131.193 329.352 134.589 333.951 139.012C334.222 138.077 337.184 139.897 338.394 141.743C338.8 140.221 341.577 147.582 342.56 152.786C343.015 151.053 344.763 153.85 343.231 156.534C344.202 156.392 344.64 158.875 343.889 160.259C344.951 159.76 344.772 162.725 343.62 164.706C345.136 164.571 331.67 185.47 326.218 197.683C324.635 190.409 322.855 182.75 317.751 177.332C316.883 176.411 315.933 175.572 314.984 174.734L309.853 170.206C303.887 164.939 298.46 158.44 290.512 156.471C285.05 155.119 281.597 154.813 284.573 148.659C281.884 149.781 279.373 151.45 276.659 152.492C276.696 151.632 277.075 150.67 277.022 149.809Z" fill="#2F2E41"/>
<path d="M315.111 180.763C318.066 180.763 320.461 178.367 320.461 175.413C320.461 172.458 318.066 170.062 315.111 170.062C312.156 170.062 309.761 172.458 309.761 175.413C309.761 178.367 312.156 180.763 315.111 180.763Z" fill="#FFB9B9"/>
<path d="M190.716 55.1631H164.849V81.0306H190.716V55.1631Z" fill="#FF0000"/>
<path d="M206.422 66.2484H175.012V34.8379H206.422V66.2484ZM176.377 64.8828H205.057V36.2036H176.377V64.8828Z" fill="#3F3D56"/>
<path d="M75.1397 159.986L68.0371 135.112L43.1638 142.215L50.2665 167.088L75.1397 159.986Z" fill="#FF0000"/>
<path d="M68.7916 178.132L60.167 147.928L90.3703 139.304L98.9949 169.507L68.7916 178.132ZM61.8552 148.867L69.7298 176.443L97.3067 168.569L89.4321 140.992L61.8552 148.867Z" fill="#3F3D56"/>
<path d="M68.7107 44.1382L86.373 25.2393L67.4741 7.57693L49.8118 26.4759L68.7107 44.1382Z" fill="#FF0000"/>
<path d="M49.8877 48.0435L71.3348 25.0947L94.2835 46.5418L72.8364 69.4906L49.8877 48.0435ZM71.4001 27.025L51.818 47.9782L72.7711 67.5603L92.3533 46.6071L71.4001 27.025Z" fill="#3F3D56"/>
<path d="M948.073 4.95392H707.718V0H598.732V4.95392H357.386C355.251 4.95392 353.137 5.37445 351.164 6.1915C349.192 7.00855 347.4 8.20612 345.89 9.71584C344.38 11.2256 343.183 13.0178 342.366 14.9904C341.548 16.9629 341.128 19.0771 341.128 21.2121V350.332C341.128 352.467 341.548 354.581 342.366 356.554C343.183 358.526 344.38 360.319 345.89 361.828C347.4 363.338 349.192 364.536 351.164 365.353C353.137 366.17 355.251 366.59 357.386 366.59H948.073C952.385 366.59 956.52 364.877 959.569 361.828C962.618 358.779 964.331 354.644 964.331 350.332V21.2121C964.331 19.0771 963.911 16.9629 963.094 14.9904C962.277 13.0178 961.079 11.2256 959.569 9.71584C958.06 8.20612 956.267 7.00855 954.295 6.1915C952.322 5.37445 950.208 4.95392 948.073 4.95392V4.95392Z" fill="#3F3D56"/>
<path d="M942.535 33.6865H362.926V360.645H942.535V33.6865Z" fill="#FF0000"/>
<path d="M652.235 24.7693C655.518 24.7693 658.179 22.1078 658.179 18.8246C658.179 15.5414 655.518 12.8799 652.235 12.8799C648.952 12.8799 646.29 15.5414 646.29 18.8246C646.29 22.1078 648.952 24.7693 652.235 24.7693Z" fill="#FF0000"/>
<path opacity="0.1" d="M776.776 360.645H362.926V33.6865L776.776 360.645Z" fill="black"/>
<path d="M453.617 336.18C484.387 336.18 509.331 311.236 509.331 280.466C509.331 249.696 484.387 224.752 453.617 224.752C422.847 224.752 397.903 249.696 397.903 280.466C397.903 311.236 422.847 336.18 453.617 336.18Z" fill="#F2F2F2"/>
<path d="M466.019 322.34C452.313 322.34 438.914 318.275 427.517 310.66C416.12 303.045 407.238 292.221 401.992 279.558C396.747 266.895 395.374 252.96 398.048 239.517C400.723 226.073 407.323 213.725 417.015 204.033C426.707 194.341 439.056 187.74 452.499 185.066C465.942 182.392 479.877 183.764 492.54 189.01C505.204 194.255 516.027 203.138 523.642 214.535C531.257 225.931 535.322 239.33 535.322 253.037C535.301 271.411 527.993 289.026 515.001 302.018C502.008 315.011 484.393 322.319 466.019 322.34ZM466.019 184.64C452.492 184.64 439.268 188.652 428.02 196.167C416.772 203.683 408.006 214.365 402.829 226.863C397.652 239.361 396.298 253.113 398.937 266.38C401.576 279.648 408.09 291.835 417.656 301.401C427.221 310.966 439.408 317.48 452.676 320.119C465.943 322.758 479.696 321.404 492.194 316.227C504.691 311.05 515.374 302.284 522.889 291.036C530.405 279.788 534.416 266.565 534.416 253.037C534.396 234.903 527.183 217.518 514.36 204.696C501.538 191.873 484.153 184.661 466.019 184.64V184.64Z" fill="#3F3D56"/>
<path d="M841.615 210.019H787.474V221.332H841.615V210.019Z" fill="#3F3D56"/>
<path d="M907.07 121.937H722.019V126.785H907.07V121.937Z" fill="#3F3D56"/>
<path d="M907.07 137.29H722.019V142.139H907.07V137.29Z" fill="#3F3D56"/>
<path d="M907.07 152.645H722.019V157.493H907.07V152.645Z" fill="#3F3D56"/>
<path d="M907.07 167.998H722.019V172.847H907.07V167.998Z" fill="#3F3D56"/>
<path d="M907.07 183.352H722.019V188.2H907.07V183.352Z" fill="#3F3D56"/>
<path d="M907.07 40.3203H884.443V62.9467H907.07V40.3203Z" fill="#F2F2F2"/>
<path d="M917.576 73.4516H890.101V45.9766H917.576V73.4516ZM891.295 72.257H916.381V47.1712H891.295V72.257Z" fill="#3F3D56"/>
<path d="M980.606 354.701H924.04V350.625C924.04 350.519 924.019 350.414 923.978 350.316C923.937 350.218 923.878 350.129 923.803 350.054C923.728 349.979 923.639 349.92 923.541 349.879C923.443 349.838 923.338 349.817 923.232 349.817H903.837C903.731 349.817 903.626 349.838 903.528 349.879C903.43 349.92 903.341 349.979 903.266 350.054C903.191 350.129 903.131 350.218 903.091 350.316C903.05 350.414 903.029 350.519 903.029 350.625V354.701H890.908V350.625C890.908 350.519 890.887 350.414 890.847 350.316C890.806 350.218 890.746 350.129 890.671 350.054C890.596 349.979 890.507 349.92 890.409 349.879C890.311 349.838 890.206 349.817 890.1 349.817H870.706C870.6 349.817 870.495 349.838 870.397 349.879C870.299 349.92 870.209 349.979 870.134 350.054C870.059 350.129 870 350.218 869.959 350.316C869.919 350.414 869.898 350.519 869.898 350.625V354.701H857.776V350.625C857.777 350.519 857.756 350.414 857.715 350.316C857.674 350.218 857.615 350.129 857.54 350.054C857.465 349.979 857.376 349.92 857.278 349.879C857.18 349.838 857.074 349.817 856.968 349.817H837.574C837.468 349.817 837.363 349.838 837.265 349.879C837.167 349.92 837.078 349.979 837.003 350.054C836.928 350.129 836.868 350.218 836.828 350.316C836.787 350.414 836.766 350.519 836.766 350.625V354.701H824.645V350.625C824.645 350.519 824.624 350.414 824.583 350.316C824.543 350.218 824.483 350.129 824.408 350.054C824.333 349.979 824.244 349.92 824.146 349.879C824.048 349.838 823.943 349.817 823.837 349.817H804.443C804.337 349.817 804.232 349.838 804.133 349.879C804.035 349.92 803.946 349.979 803.871 350.054C803.796 350.129 803.737 350.218 803.696 350.316C803.656 350.414 803.635 350.519 803.635 350.625V354.701H791.513V350.625C791.513 350.519 791.492 350.414 791.452 350.316C791.411 350.218 791.352 350.129 791.277 350.054C791.202 349.979 791.113 349.92 791.015 349.879C790.916 349.838 790.811 349.817 790.705 349.817H771.311C771.205 349.817 771.1 349.838 771.002 349.879C770.904 349.92 770.815 349.979 770.74 350.054C770.665 350.129 770.605 350.218 770.565 350.316C770.524 350.414 770.503 350.519 770.503 350.625V354.701H758.382V350.625C758.382 350.519 758.361 350.414 758.32 350.316C758.28 350.218 758.22 350.129 758.145 350.054C758.07 349.979 757.981 349.92 757.883 349.879C757.785 349.838 757.68 349.817 757.574 349.817H738.18C738.074 349.817 737.968 349.838 737.87 349.879C737.772 349.92 737.683 349.979 737.608 350.054C737.533 350.129 737.474 350.218 737.433 350.316C737.392 350.414 737.372 350.519 737.372 350.625V354.701H725.25V350.625C725.25 350.519 725.229 350.414 725.189 350.316C725.148 350.218 725.089 350.129 725.014 350.054C724.939 349.979 724.849 349.92 724.751 349.879C724.653 349.838 724.548 349.817 724.442 349.817H572.522C572.416 349.817 572.311 349.838 572.213 349.879C572.115 349.92 572.026 349.979 571.95 350.054C571.875 350.129 571.816 350.218 571.775 350.316C571.735 350.414 571.714 350.519 571.714 350.625V354.701H559.592V350.625C559.592 350.519 559.572 350.414 559.531 350.316C559.49 350.218 559.431 350.129 559.356 350.054C559.281 349.979 559.192 349.92 559.094 349.879C558.996 349.838 558.891 349.817 558.784 349.817H539.39C539.284 349.817 539.179 349.838 539.081 349.879C538.983 349.92 538.894 349.979 538.819 350.054C538.744 350.129 538.684 350.218 538.644 350.316C538.603 350.414 538.582 350.519 538.582 350.625V354.701H526.461V350.625C526.461 350.519 526.44 350.414 526.399 350.316C526.359 350.218 526.299 350.129 526.224 350.054C526.149 349.979 526.06 349.92 525.962 349.879C525.864 349.838 525.759 349.817 525.653 349.817H506.259C506.153 349.817 506.048 349.838 505.95 349.879C505.851 349.92 505.762 349.979 505.687 350.054C505.612 350.129 505.553 350.218 505.512 350.316C505.472 350.414 505.451 350.519 505.451 350.625V354.701H493.329V350.625C493.329 350.519 493.308 350.414 493.268 350.316C493.227 350.218 493.168 350.129 493.093 350.054C493.018 349.979 492.929 349.92 492.831 349.879C492.732 349.838 492.627 349.817 492.521 349.817H473.127C473.021 349.817 472.916 349.838 472.818 349.879C472.72 349.92 472.631 349.979 472.556 350.054C472.481 350.129 472.421 350.218 472.381 350.316C472.34 350.414 472.319 350.519 472.319 350.625V354.701H460.198V350.625C460.198 350.519 460.177 350.414 460.136 350.316C460.096 350.218 460.036 350.129 459.961 350.054C459.886 349.979 459.797 349.92 459.699 349.879C459.601 349.838 459.496 349.817 459.39 349.817H439.996C439.89 349.817 439.784 349.838 439.686 349.879C439.588 349.92 439.499 349.979 439.424 350.054C439.349 350.129 439.29 350.218 439.249 350.316C439.208 350.414 439.188 350.519 439.188 350.625V354.701H427.066V350.625C427.066 350.519 427.045 350.414 427.005 350.316C426.964 350.218 426.905 350.129 426.83 350.054C426.755 349.979 426.665 349.92 426.567 349.879C426.469 349.838 426.364 349.817 426.258 349.817H406.864C406.758 349.817 406.653 349.838 406.555 349.879C406.457 349.92 406.368 349.979 406.293 350.054C406.218 350.129 406.158 350.218 406.118 350.316C406.077 350.414 406.056 350.519 406.056 350.625V354.701H393.935V350.625C393.935 350.519 393.914 350.414 393.873 350.316C393.833 350.218 393.773 350.129 393.698 350.054C393.623 349.979 393.534 349.92 393.436 349.879C393.338 349.838 393.233 349.817 393.127 349.817H373.733C373.626 349.817 373.521 349.838 373.423 349.879C373.325 349.92 373.236 349.979 373.161 350.054C373.086 350.129 373.027 350.218 372.986 350.316C372.945 350.414 372.924 350.519 372.924 350.625V354.701H335.752C330.609 354.701 325.676 356.744 322.039 360.381C318.402 364.019 316.358 368.952 316.358 374.095V382.865C316.358 388.008 318.402 392.941 322.039 396.578C325.676 400.215 330.609 402.259 335.752 402.259H980.606C985.749 402.259 990.682 400.215 994.319 396.578C997.956 392.941 1000 388.008 1000 382.865V374.095C1000 368.952 997.956 364.019 994.319 360.381C990.682 356.744 985.749 354.701 980.606 354.701V354.701Z" fill="#3F3D56"/>
<path d="M622.924 96.8964C623.068 96.7243 623.211 96.4949 623.383 96.3229C623.67 95.9214 624.014 95.692 624.415 96.0648C624.616 96.2368 626.796 98.3303 629.463 98.3303C631.871 98.3303 633.449 96.8104 633.449 95.0324C633.449 92.9676 631.671 91.7345 628.229 90.3293C624.932 88.8954 622.981 87.5476 622.981 84.1637C622.981 82.1276 624.587 78.8584 629.348 78.8584C632.273 78.8584 634.452 80.3783 634.452 80.3783C634.624 80.4643 634.997 80.8371 634.624 81.382C634.51 81.5541 634.395 81.7835 634.252 81.9555C633.994 82.3857 633.678 82.5004 633.219 82.2136C633.019 82.0989 631.126 80.8371 629.29 80.8371C626.136 80.8371 625.161 82.8732 625.161 84.135C625.161 86.1424 626.681 87.2895 629.204 88.3506C633.248 89.9852 635.829 91.5051 635.829 94.975C635.829 98.0722 632.875 100.338 629.377 100.338C625.849 100.338 623.469 98.2729 623.068 97.9288C622.867 97.6994 622.551 97.4699 622.924 96.8964Z" fill="white"/>
<path d="M597.355 79.3173C597.412 79.0882 597.641 78.8877 597.899 78.8877H598.386C598.587 78.8877 598.844 79.0309 598.902 79.2027L604.801 95.6415C604.858 95.6415 604.887 95.6415 604.944 95.6415L610.758 79.2027C610.815 79.0309 611.044 78.8877 611.274 78.8877H611.76C611.99 78.8877 612.247 79.0595 612.305 79.3173L616.142 99.3646C616.228 99.7942 616.056 100.081 615.598 100.081H614.395C614.166 100.081 613.908 99.8801 613.851 99.651L611.188 84.3005C611.159 84.3005 611.102 84.3005 611.073 84.3005L605.574 100.052C605.517 100.224 605.259 100.367 605.059 100.367H604.515C604.343 100.367 604.057 100.224 603.999 100.052L598.443 84.3005C598.415 84.3005 598.357 84.3005 598.329 84.3005L595.723 99.651C595.694 99.8515 595.436 100.081 595.178 100.081H593.976C593.517 100.081 593.346 99.7942 593.432 99.3646L597.355 79.3173Z" fill="white"/>
<path d="M579.401 78.8877C582.408 78.8877 584.585 79.9187 586.618 81.6657C586.847 81.8948 586.876 82.2671 586.647 82.4962L585.845 83.2981C585.616 83.5845 585.358 83.5559 585.072 83.2695C583.525 81.9234 581.406 81.0356 579.372 81.0356C574.676 81.0356 571.067 84.9878 571.067 89.6273C571.067 94.2096 574.676 98.1904 579.372 98.1904C581.979 98.1904 583.496 97.1594 585.072 95.9566C585.358 95.7274 585.616 95.7561 585.788 95.8706L586.675 96.6725C586.905 96.8444 586.847 97.274 586.647 97.4744C584.613 99.4505 582.065 100.367 579.401 100.367C573.444 100.367 568.633 95.6129 568.633 89.656C568.633 83.6991 573.444 78.8877 579.401 78.8877Z" fill="white"/>
<path d="M430.6 100.82C430.517 100.709 430.185 100.681 430.019 100.82C427.39 103.089 423.627 104.417 419.974 104.417C411.812 104.417 405.392 97.9418 405.171 89.5853C405.392 81.2288 411.812 74.7539 419.974 74.7539C423.655 74.7539 427.418 76.1098 430.019 78.3511C430.185 78.4894 430.517 78.4618 430.6 78.3511L436.134 72.4572C436.245 72.3466 436.245 71.9868 436.079 71.8208C434.225 70.0222 432.066 68.5557 429.742 67.4489L429.133 67.2552L429.244 62.2191C427.694 61.6657 426.09 61.223 424.485 60.9463L422.077 65.2906L421.496 65.2352C419.919 65.0969 418.812 65.0969 417.235 65.2352L416.654 65.3182L414.247 60.974C412.642 61.2507 411.037 61.6934 409.46 62.2468L409.543 67.1998L409.017 67.4489C407.772 68.03 406.526 68.7494 405.337 69.5795L404.866 69.9116L400.605 67.3659C399.332 68.4173 398.17 69.6072 397.118 70.8524L399.664 75.1136L399.332 75.584C398.862 76.2481 398.419 76.9675 397.921 77.8807L397.534 78.6278C397.423 78.8491 397.312 79.0428 397.201 79.2642L396.952 79.7899L391.999 79.7346C391.446 81.2842 391.003 82.889 390.727 84.4939L395.071 86.9013L395.015 87.4824C394.932 88.2848 394.905 88.9489 394.905 89.613C394.905 90.2771 394.932 90.9412 395.015 91.7436L395.071 92.3247L390.727 94.732C391.003 96.3369 391.446 97.9418 391.999 99.4914L396.952 99.4084L397.201 99.9341C397.312 100.155 397.423 100.349 397.534 100.571L397.921 101.318C398.419 102.231 398.862 102.95 399.332 103.614L399.664 104.085L397.118 108.346C398.17 109.591 399.36 110.781 400.605 111.832L404.866 109.287L405.337 109.619C406.526 110.449 407.772 111.168 409.017 111.749L409.543 111.998L409.46 116.979C411.009 117.533 412.614 117.975 414.219 118.252L416.626 113.908L417.207 113.963C418.785 114.101 419.891 114.101 421.469 113.963L422.05 113.908L424.457 118.252C426.062 117.975 427.667 117.533 429.216 116.979L429.106 111.943L429.714 111.749C432.039 110.67 434.197 109.176 436.051 107.377C436.217 107.211 436.217 106.852 436.106 106.741L430.6 100.82Z" fill="white"/>
<path d="M561.449 100.237C561.597 100.237 561.685 100.178 561.744 100.09C561.803 100.001 561.803 99.8539 561.744 99.7358L557.26 91.4454L557.555 91.3274C560.328 90.2063 562.039 87.8755 562.039 85.2497C562.039 81.6503 559.089 78.7295 555.46 78.7295H546.019C545.812 78.7295 545.694 78.9065 545.694 79.054V99.9129C545.694 100.06 545.812 100.237 546.019 100.237H549.766C549.913 100.237 550.09 100.09 550.09 99.9129V91.5929H552.716L556.994 100.09C557.024 100.119 557.112 100.208 557.23 100.208H561.449V100.237ZM555.047 88.1706H550.09V82.6829H555.047C556.522 82.6829 557.732 83.8926 557.732 85.3677C557.732 86.8724 556.463 88.1706 555.047 88.1706Z" fill="white"/>
<path d="M538.753 100.237C538.96 100.237 539.078 100.06 539.078 99.9129V96.4905C539.078 96.343 538.96 96.1659 538.753 96.1659H529.755V91.3274H537.219C537.367 91.3274 537.544 91.2094 537.544 91.0029V87.61C537.544 87.4625 537.396 87.2855 537.219 87.2855H529.755V82.8009H538.783C538.989 82.8009 539.108 82.6534 539.108 82.4764V79.054C539.108 78.9065 538.989 78.7295 538.783 78.7295H525.743C525.536 78.7295 525.418 78.877 525.418 79.054V99.9129C525.418 100.06 525.536 100.237 525.743 100.237H538.753Z" fill="white"/>
<path d="M518.831 82.5059V79.054C518.831 78.9065 518.713 78.7295 518.506 78.7295H504.522C504.315 78.7295 504.197 78.877 504.197 79.054V82.4764C504.197 82.6239 504.315 82.8009 504.522 82.8009H509.301V99.9129C509.301 100.06 509.449 100.237 509.626 100.237H513.402C513.55 100.237 513.727 100.09 513.727 99.9129V82.8009H518.506C518.713 82.8009 518.831 82.6534 518.831 82.5059Z" fill="white"/>
<path d="M497.285 82.8009C497.491 82.8009 497.609 82.6534 497.609 82.4764V79.054C497.609 78.9065 497.491 78.7295 497.285 78.7295H484.244C484.038 78.7295 483.92 78.877 483.92 79.054V99.9129C483.92 100.06 484.038 100.237 484.244 100.237H487.962C488.109 100.237 488.286 100.09 488.286 99.9129V91.9765H495.751C495.898 91.9765 496.075 91.829 496.075 91.6519V88.2296C496.075 88.082 495.928 87.905 495.751 87.905H488.286V82.8009H497.285Z" fill="white"/>
<path d="M477.028 100.237C477.145 100.237 477.261 100.208 477.29 100.121C477.348 100.034 477.348 99.9464 477.29 99.8299L467.569 78.9041C467.511 78.8168 467.395 78.7295 467.307 78.7295H466.987C466.9 78.7295 466.754 78.8168 466.725 78.9041L457.005 99.8299C456.946 99.9464 456.946 100.034 457.005 100.121C457.063 100.208 457.15 100.237 457.267 100.237H460.672C461.196 100.237 461.428 99.9173 461.545 99.6553L462.738 97.0069H471.557L472.75 99.6262C473.012 100.15 473.157 100.237 473.594 100.237H477.028ZM464.339 93.3397L466.929 87.6353H467.278L467.395 87.81L469.956 93.3397H464.339V93.3397Z" fill="white"/>
<path d="M449.784 100.237C449.932 100.237 450.02 100.178 450.079 100.09C450.138 100.001 450.138 99.8539 450.079 99.7358L445.595 91.4454L445.89 91.3274C448.663 90.2063 450.374 87.8755 450.374 85.2497C450.374 81.6503 447.424 78.7295 443.795 78.7295H434.354C434.147 78.7295 434.029 78.9065 434.029 79.054V99.9129C434.029 100.06 434.147 100.237 434.354 100.237H438.101C438.248 100.237 438.425 100.09 438.425 99.9129V91.5929H441.051L445.329 100.09C445.359 100.119 445.447 100.208 445.565 100.208H449.784V100.237ZM443.382 88.1706H438.425V82.6829H443.382C444.857 82.6829 446.067 83.8926 446.067 85.3677C446.067 86.8724 444.798 88.1706 443.382 88.1706Z" fill="white"/>
<path d="M420.081 100.237C422.859 100.237 425.38 99.235 427.327 97.3449C427.442 97.2303 427.442 97.0012 427.356 96.9153L424.979 94.3664C424.95 94.3091 424.864 94.2805 424.778 94.2805C424.692 94.2805 424.606 94.3091 424.549 94.3378C423.432 95.3115 421.828 95.8843 420.282 95.8843C416.759 95.8843 413.981 93.0204 413.981 89.3832C413.981 85.6888 416.731 82.7962 420.253 82.7962C421.828 82.7962 423.404 83.3977 424.578 84.4287C424.692 84.5432 424.864 84.5432 424.95 84.4287L427.327 81.9657C427.384 81.9084 427.442 81.8225 427.442 81.7366C427.442 81.6507 427.413 81.5648 427.327 81.5075C425.208 79.5887 423.003 78.7295 420.11 78.7295C414.153 78.7581 409.342 83.5981 409.342 89.5264C409.342 95.426 414.153 100.237 420.081 100.237Z" fill="white"/>
</g>
<defs>
<clipPath id="clip0">
<rect width="1000" height="415.618" fill="white"/>
</clipPath>
</defs>
</svg>
