<svg width="911" height="802" viewBox="0 0 911 802" fill="none" xmlns="http://www.w3.org/2000/svg">
  <g clip-path="url(#clip0)">
    <path
      d="M771.169 298.167C727.882 127.951 578.31 5.0783 402.744 0.149992C309.928 -2.45545 212.26 28.3275 141.15 136.048C14.0333 328.611 148.961 461.678 243.03 524.908C288.476 555.518 329.426 592.324 364.693 634.259C428.233 709.659 550.47 803.355 696.048 656.548C801.563 550.143 800.003 411.548 771.169 298.167Z"
      fill="#F2F2F2"/>
    <path
      d="M455 753.723C706.29 753.723 910 743.425 910 730.723C910 718.02 706.29 707.723 455 707.723C203.71 707.723 0 718.02 0 730.723C0 743.425 203.71 753.723 455 753.723Z"
      fill="#3F3D56"/>
    <path
      d="M732.182 777.723C830.513 777.723 910.226 773.693 910.226 768.723C910.226 763.752 830.513 759.723 732.182 759.723C633.851 759.723 554.139 763.752 554.139 768.723C554.139 773.693 633.851 777.723 732.182 777.723Z"
      fill="#3F3D56"/>
    <path
      d="M396.056 801.723C494.387 801.723 574.1 797.693 574.1 792.723C574.1 787.752 494.387 783.723 396.056 783.723C297.725 783.723 218.013 787.752 218.013 792.723C218.013 797.693 297.725 801.723 396.056 801.723Z"
      fill="#3F3D56"/>
    <path
      d="M427.108 350.166C427.108 350.166 406.16 349.724 410.623 358.819C415.086 367.914 432.401 367.279 432.401 367.279L427.108 350.166Z"
      fill="#FFB9B9"/>
    <path
      d="M528.041 238.011L497.353 279.569L470.822 311.186C470.822 311.186 443.331 339.789 440.265 343.745C437.2 347.7 428.192 346.569 430.109 352.598C432.026 358.626 434.887 368.669 437.88 369.713C440.873 370.756 454.936 368.961 455.968 366.976C457 364.99 522.715 327.943 546.166 301.281L568.485 286.171L568.819 260.607L528.041 238.011Z"
      fill="#FF0000"/>
    <path
      d="M528.041 238.011L497.353 279.569L470.822 311.186C470.822 311.186 443.331 339.789 440.265 343.745C437.2 347.7 428.192 346.569 430.109 352.598C432.026 358.626 434.887 368.669 437.88 369.713C440.873 370.756 454.936 368.961 455.968 366.976C457 364.99 522.715 327.943 546.166 301.281L568.485 286.171L568.819 260.607L528.041 238.011Z"
      fill="#FF6584"/>
    <path opacity="0.1"
          d="M520.957 238.011L492.483 279.569L467.866 311.186C467.866 311.186 442.358 339.789 439.514 343.745C436.669 347.7 428.312 346.569 430.09 352.598C431.869 358.626 434.524 368.669 437.301 369.713C440.077 370.756 453.126 368.961 454.084 366.976C455.041 364.99 516.015 327.943 537.775 301.281L558.483 286.171L558.794 260.607L520.957 238.011Z"
          fill="black"/>
    <path
      d="M515.349 218.723L508.969 233.723H503.318L511.339 195.723C511.339 171.332 523.141 150.723 547.594 150.723H547.595C555.794 150.723 563.657 153.972 569.455 159.755C575.253 165.538 578.51 173.381 578.51 181.559V218.827C578.51 222.778 576.936 226.566 574.136 229.36C571.335 232.153 567.537 233.723 563.576 233.723H519.735L515.349 218.723Z"
      fill="#2F2E41"/>
    <path
      d="M605.128 602.223C605.128 602.223 613.393 614.223 613.393 617.223C613.393 620.223 617.984 621.223 620.739 624.223C623.494 627.223 626.249 626.223 624.413 629.223C622.576 632.223 647.37 650.223 647.37 650.223L671.246 684.223L664.818 690.223L646.452 669.223L649.207 706.223L623.494 732.223C623.494 732.223 612.475 734.223 611.556 732.223C610.638 730.223 620.739 710.223 620.739 710.223C620.739 710.223 619.821 692.223 614.311 685.223C610.894 680.846 607.822 676.163 605.128 671.223C605.128 671.223 607.883 667.223 601.455 666.223C595.027 665.223 599.618 659.223 599.618 659.223C599.618 659.223 597.782 658.223 592.272 658.223C586.762 658.223 561.968 629.223 561.968 629.223L605.128 602.223Z"
      fill="#2F2E41"/>
    <path
      d="M487.781 633.223C487.781 633.223 491.297 647.223 485.144 655.223C478.991 663.223 485.144 661.223 485.144 661.223C485.144 661.223 484.265 667.223 487.781 670.223C491.297 673.223 491.297 679.223 491.297 679.223C491.297 679.223 495.691 689.223 494.812 695.223C493.934 701.223 493.934 731.223 493.934 731.223H485.144V705.223L467.564 731.223H423.615C423.615 731.223 424.494 726.223 428.889 725.223C433.284 724.223 446.469 725.223 449.105 704.223C449.105 704.223 449.984 692.223 451.742 690.223C453.5 688.223 455.258 681.223 453.5 676.223C451.742 671.223 453.5 669.223 450.863 667.223C448.226 665.223 447.347 659.223 449.105 656.223C450.863 653.223 456.137 648.223 449.984 645.223C443.832 642.223 443.832 627.223 443.832 627.223L487.781 633.223Z"
      fill="#2F2E41"/>
    <path
      d="M566.909 393.223C566.909 393.223 577.056 402.223 564.142 439.223C551.227 476.223 545.693 524.223 545.693 524.223C545.693 524.223 558.607 536.223 558.607 542.223C558.607 548.223 615.8 586.223 612.11 603.223C608.42 620.223 541.08 652.223 534.623 650.223C528.166 648.223 496.802 552.223 496.802 552.223C496.802 552.223 508.794 446.223 509.716 445.223C510.639 444.223 538.313 395.223 538.313 395.223L554.917 358.223L566.909 393.223Z"
      fill="#2F2E41"/>
    <path opacity="0.1"
          d="M566.909 393.223C566.909 393.223 577.056 402.223 564.142 439.223C551.227 476.223 545.693 524.223 545.693 524.223C545.693 524.223 558.607 536.223 558.607 542.223C558.607 548.223 615.8 586.223 612.11 603.223C608.42 620.223 541.08 652.223 534.623 650.223C528.166 648.223 496.802 552.223 496.802 552.223C496.802 552.223 508.794 446.223 509.716 445.223C510.639 444.223 538.313 395.223 538.313 395.223L554.917 358.223L566.909 393.223Z"
          fill="black"/>
    <path
      d="M564.08 370.223C564.08 370.223 571.586 399.223 553.758 429.223C535.93 459.223 515.287 521.223 515.287 521.223C515.287 521.223 495.582 586.223 504.027 633.223C504.027 633.223 506.842 639.223 499.336 639.223C491.829 639.223 413.01 637.223 419.578 616.223C426.147 595.223 455.235 497.223 455.235 497.223L492.767 398.223L494.644 368.223L508.719 345.223H537.807L564.08 370.223Z"
      fill="#2F2E41"/>
    <path
      d="M714.246 400.223C714.246 400.223 744.573 400.223 737.98 409.223C731.387 418.223 706.335 417.223 706.335 417.223L714.246 400.223Z"
      fill="#FFB9B9"/>
    <path
      d="M555.452 193.723C555.452 193.723 553.447 207.723 560.465 209.723C567.482 211.723 532.393 226.723 532.393 226.723C532.393 226.723 525.375 202.723 522.368 199.723C519.36 196.723 555.452 193.723 555.452 193.723Z"
      fill="#FFB9B9"/>
    <path opacity="0.1"
          d="M555.452 193.723C555.452 193.723 553.447 207.723 560.465 209.723C567.482 211.723 532.393 226.723 532.393 226.723C532.393 226.723 525.375 202.723 522.368 199.723C519.36 196.723 555.452 193.723 555.452 193.723Z"
          fill="black"/>
    <path
      d="M524.612 216.723C524.612 216.723 553.397 207.723 554.325 204.723C555.254 201.723 561.754 208.723 564.539 213.723C567.325 218.723 572.896 224.723 575.682 224.723C578.468 224.723 598.896 237.723 603.538 260.723C605.664 271.252 608.762 277.38 611.497 280.93C613.553 283.83 614.803 287.298 615.102 290.931C615.116 291.099 615.17 291.261 615.259 291.4C615.348 291.538 615.468 291.65 615.609 291.723C617.467 292.723 576.611 334.723 576.611 334.723C576.611 334.723 560.825 330.723 558.04 334.723C555.254 338.723 559.897 345.723 562.682 349.723C565.468 353.723 571.968 373.723 568.254 376.723C564.539 379.723 545.04 349.723 533.897 355.723C522.755 361.723 511.612 356.723 511.612 356.723C511.612 356.723 506.97 372.723 499.541 372.723C492.113 372.723 490.256 359.723 493.041 355.723C495.827 351.723 506.97 343.723 501.398 332.723C495.827 321.723 493.97 301.723 493.97 301.723C493.97 301.723 479.113 282.723 506.041 259.723C506.041 259.723 515.327 231.723 518.112 229.723C520.898 227.723 525.541 226.723 525.541 224.723C525.541 222.723 524.612 216.723 524.612 216.723Z"
      fill="#FF6584"/>
    <path
      d="M619.626 286.723L647.512 328.723L671.68 360.723C671.68 360.723 696.778 389.723 699.567 393.723C702.355 397.723 710.721 396.723 708.862 402.723C707.003 408.723 704.214 418.723 701.426 419.723C698.637 420.723 685.623 418.723 684.694 416.723C683.764 414.723 623.344 376.723 601.964 349.723L581.478 334.289L581.514 308.723L619.626 286.723Z"
      fill="#FF6584"/>
    <path
      d="M552.263 335.8L503.374 337.65C502.822 337.669 502.298 337.943 501.914 338.413C501.529 338.882 501.314 339.511 501.314 340.166V341.09C501.314 341.43 501.372 341.767 501.485 342.08C501.598 342.392 501.763 342.675 501.97 342.91C502.177 343.144 502.422 343.327 502.691 343.447C502.959 343.566 503.245 343.62 503.532 343.605L552.421 340.83C552.967 340.801 553.483 340.524 553.861 340.055C554.238 339.587 554.449 338.964 554.449 338.316V338.316C554.449 337.979 554.392 337.645 554.282 337.335C554.171 337.025 554.009 336.744 553.805 336.51C553.601 336.275 553.36 336.091 553.095 335.969C552.83 335.848 552.547 335.79 552.263 335.8Z"
      fill="#2F2E41"/>
    <path
      d="M502.316 346.723C501.762 346.723 501.313 344.26 501.313 341.223C501.313 338.185 501.762 335.723 502.316 335.723C502.87 335.723 503.318 338.185 503.318 341.223C503.318 344.26 502.87 346.723 502.316 346.723Z"
      fill="#2F2E41"/>
    <path
      d="M530.388 209.723C517.653 209.723 507.329 197.187 507.329 181.723C507.329 166.259 517.653 153.723 530.388 153.723C543.123 153.723 553.446 166.259 553.446 181.723C553.446 197.187 543.123 209.723 530.388 209.723Z"
      fill="#FFB9B9"/>
    <path
      d="M521.576 152.06C526.379 150.685 537.768 150.723 539.435 150.723C543.45 150.723 547.425 151.616 551.134 153.351C554.844 155.087 558.214 157.63 561.053 160.837C563.892 164.043 566.144 167.85 567.68 172.04C569.216 176.229 570.007 180.719 570.007 185.254L581.517 233.723H559.114L554.956 215.723L549.054 233.723H537.776L536.807 222.906L532.99 233.723H520.428C529.836 209.679 534.841 187.762 522.48 174.235C514.134 175.519 507.094 172.994 505.947 167.883C504.625 161.994 511.623 154.91 521.576 152.06Z"
      fill="#2F2E41"/>
    <path
      d="M32.8998 323.323C30.4373 323.332 28.0158 322.693 25.8791 321.468C23.7425 320.244 21.9662 318.479 20.7292 316.349C19.4922 314.22 18.8382 311.802 18.833 309.34C18.8279 306.877 19.4717 304.457 20.6998 302.323C38.4998 272.323 92.5998 202.223 210.8 202.223C262 202.223 306.9 215.823 344.2 242.623C374.9 264.623 392.1 289.523 400.3 301.523C401.34 303.036 402.069 304.741 402.446 306.539C402.823 308.336 402.84 310.19 402.496 311.994C402.152 313.798 401.453 315.516 400.441 317.049C399.429 318.581 398.124 319.898 396.6 320.923C393.5 323 389.709 323.776 386.043 323.084C382.376 322.392 379.129 320.287 377 317.223C362.1 295.623 316.9 230.023 210.8 230.023C107.2 230.023 60.3998 290.423 45.0998 316.323C43.8803 318.476 42.1045 320.262 39.9582 321.493C37.8119 322.725 35.374 323.356 32.8998 323.323V323.323Z"
      fill="#FF0000"/>
    <path
      d="M270.3 597.723C269.121 597.739 267.945 597.604 266.8 597.323C181.1 575.823 149.1 489.223 147.8 485.623L147.6 484.823C146.9 482.323 129.7 422.923 156.1 388.123C168.2 372.223 186.6 364.123 210.9 364.123C233.5 364.123 249.8 371.223 261 385.923C270.2 397.923 273.9 412.723 277.5 427.023C285 456.723 290.4 472.323 321.6 473.923C335.3 474.623 344.3 466.523 349.4 459.623C363.2 440.823 365.6 410.123 355.2 383.123C341.8 348.123 294.4 282.223 210.8 282.223C175.1 282.223 142.3 293.823 116 315.623C94.2 333.723 76.9 359.223 68.6 385.423C53.2 434.223 73.4 510.923 73.6 511.623C74.0701 513.396 74.1838 515.245 73.9345 517.062C73.6853 518.88 73.0781 520.629 72.1481 522.21C71.2181 523.791 69.9837 525.172 68.5164 526.273C67.0491 527.374 65.3781 528.173 63.6 528.623C59.9941 529.575 56.1585 529.07 52.9216 527.218C49.6847 525.365 47.3063 522.314 46.3 518.723C45.4 515.223 23.8 433.423 41.6 377.023C61 315.923 120.8 254.323 210.8 254.323C252.4 254.323 291.7 268.623 324.5 295.623C349.9 316.623 370.7 344.823 381.5 373.023C395.3 409.023 391.6 449.423 372.1 475.823C359.1 493.423 340.6 502.623 320.1 501.623C266.7 498.923 257.1 461.223 250.1 433.723C242.9 405.523 238.3 391.923 210.8 391.923C195.7 391.923 185.1 396.123 178.5 404.823C169.5 416.723 168.8 435.323 169.8 448.823C169.81 448.964 169.82 449.105 169.831 449.245C171.154 466.42 176.354 483.072 185.041 497.947C198.923 521.883 227.082 558.593 273.8 570.323C275.584 570.755 277.265 571.536 278.745 572.622C280.225 573.707 281.475 575.075 282.424 576.646C283.372 578.218 284 579.962 284.27 581.777C284.541 583.592 284.449 585.444 284 587.223C283.188 590.236 281.405 592.897 278.929 594.795C276.453 596.692 273.42 597.722 270.3 597.723V597.723Z"
      fill="#FF0000"/>
    <path
      d="M160.3 591.323C158.375 591.324 156.47 590.934 154.7 590.178C152.929 589.422 151.331 588.315 150 586.923C115.7 550.523 96.3005 509.823 89.0005 458.923V458.623C84.9005 424.923 90.9005 377.223 120.3 344.423C142 320.223 172.5 307.923 210.8 307.923C256.1 307.923 291.7 329.223 313.9 369.423C323.933 387.911 330.508 408.074 333.3 428.923C333.63 432.62 332.491 436.299 330.129 439.163C327.767 442.028 324.373 443.847 320.68 444.228C316.988 444.609 313.293 443.521 310.397 441.2C307.5 438.878 305.633 435.51 305.201 431.823C302.768 414.391 297.176 397.549 288.701 382.123C271.5 351.423 245.3 335.823 210.7 335.823C180.8 335.823 157.4 344.923 141.3 362.923C118.1 388.823 113.6 428.723 116.8 455.123C123.2 500.123 140.3 535.923 170.5 567.923C171.761 569.255 172.744 570.826 173.392 572.542C174.041 574.258 174.341 576.086 174.276 577.919C174.21 579.753 173.781 581.555 173.013 583.221C172.245 584.887 171.153 586.383 169.8 587.623C167.202 589.991 163.816 591.309 160.3 591.323V591.323Z"
      fill="#FF0000"/>
    <path
      d="M211 460.723C220.941 460.723 229 452.664 229 442.723C229 432.782 220.941 424.723 211 424.723C201.059 424.723 193 432.782 193 442.723C193 452.664 201.059 460.723 211 460.723Z"
      fill="#FF0000"/>
  </g>
  <defs>
    <clipPath id="clip0">
      <rect width="910.225" height="801.723" fill="white"/>
    </clipPath>
  </defs>
</svg>
