<svg width="200" height="200" viewBox="0 0 200 200" fill="none" xmlns="http://www.w3.org/2000/svg">
<path d="M123.124 137.55C132.824 137.55 141.624 134.05 148.424 127.45C148.824 127.05 148.824 126.25 148.524 125.95L140.224 117.05C140.124 116.85 139.824 116.75 139.524 116.75C139.224 116.75 138.924 116.85 138.724 116.95C134.824 120.35 129.224 122.35 123.824 122.35C111.524 122.35 101.824 112.35 101.824 99.6502C101.824 86.7502 111.424 76.6502 123.724 76.6502C129.224 76.6502 134.724 78.7502 138.824 82.3502C139.224 82.7502 139.824 82.7502 140.124 82.3502L148.424 73.7502C148.624 73.5502 148.824 73.2502 148.824 72.9502C148.824 72.6502 148.724 72.3502 148.424 72.1502C141.024 65.4502 133.324 62.4502 123.224 62.4502C102.424 62.5502 85.624 79.4502 85.624 100.15C85.624 120.75 102.424 137.55 123.124 137.55Z" fill="black"/>
<g clip-path="url(#clip0)">
<path d="M159.807 139.13C159.517 138.744 158.357 138.647 157.778 139.13C148.599 147.053 135.459 151.691 122.705 151.691C94.2028 151.691 71.7873 129.082 71.0144 99.9034C71.7873 70.7247 94.2028 48.116 122.705 48.116C135.555 48.116 148.696 52.8503 157.778 60.6764C158.357 61.1595 159.517 61.0629 159.807 60.6764L179.13 40.0967C179.517 39.7102 179.517 38.4542 178.937 37.8745C172.464 31.5943 164.927 26.4735 156.811 22.6088L154.686 21.9324L155.072 4.34789C149.662 2.41552 144.058 0.869626 138.454 -0.0965576L130.048 15.0725L128.019 14.8793C122.512 14.3962 118.647 14.3962 113.14 14.8793L111.111 15.1691L102.705 6.07371e-05C97.1013 0.966244 91.4975 2.51214 85.9902 4.4445L86.2801 21.7392L84.4443 22.6088C80.0965 24.6377 75.7487 27.1498 71.5941 30.0484L69.9516 31.2078L55.0723 22.3189C50.6279 25.9904 46.5699 30.145 42.8984 34.4928L51.7873 49.372L50.6279 51.0145C48.9854 53.3334 47.4395 55.8455 45.7004 59.0339L44.3477 61.6426C43.9612 62.4155 43.5748 63.0918 43.1883 63.8648L42.3187 65.7005L25.024 65.5073C23.0917 70.9179 21.5458 76.5218 20.5796 82.1257L35.7487 90.5315L35.5554 92.5604C35.2656 95.3624 35.169 97.6812 35.169 100C35.169 102.319 35.2656 104.638 35.5554 107.44L35.7487 109.469L20.5796 117.874C21.5458 123.478 23.0917 129.082 25.024 134.493L42.3187 134.203L43.1883 136.039C43.5748 136.812 43.9612 137.488 44.3477 138.261L45.7004 140.87C47.4395 144.058 48.9854 146.57 50.6279 148.889L51.7873 150.531L42.8984 165.411C46.5699 169.759 50.7245 173.913 55.0723 177.585L69.9516 168.696L71.5941 169.855C75.7487 172.754 80.0965 175.266 84.4443 177.295L86.2801 178.164L85.9902 195.556C91.4008 197.488 97.0047 199.034 102.609 200L111.014 184.831L113.043 185.024C118.551 185.507 122.415 185.507 127.923 185.024L129.952 184.831L138.357 200C143.961 199.034 149.565 197.488 154.976 195.556L154.589 177.971L156.715 177.295C164.831 173.527 172.367 168.309 178.84 162.029C179.42 161.449 179.42 160.193 179.034 159.807L159.807 139.13Z" fill="#FF0000"/>
</g>
<defs>
<clipPath id="clip0">
<rect width="200" height="200" fill="white"/>
</clipPath>
</defs>
</svg>
