<svg width="203" height="203" viewBox="0 0 203 203" fill="none" xmlns="http://www.w3.org/2000/svg">
<g filter="url(#filter0_d)">
<mask id="mask0" mask-type="alpha" maskUnits="userSpaceOnUse" x="5" y="5" width="193" height="193">
<path d="M197.508 101.254C197.508 126.782 187.367 151.265 169.316 169.316C151.265 187.367 126.782 197.508 101.254 197.508C88.6139 197.508 76.0974 195.019 64.4193 190.182C52.7412 185.344 42.1302 178.254 33.1922 169.316C24.2542 160.378 17.1641 149.767 12.3269 138.089C7.48969 126.411 5 113.895 5 101.254C5 88.6139 7.48969 76.0974 12.3269 64.4193C17.1641 52.7412 24.2542 42.1302 33.1922 33.1922C42.1302 24.2542 52.7412 17.1641 64.4193 12.3269C76.0974 7.48969 88.6139 5 101.254 5C126.782 5 151.265 15.141 169.316 33.1922C187.367 51.2434 197.508 75.726 197.508 101.254Z" fill="#80DEEA"/>
</mask>
<g mask="url(#mask0)">
<path d="M197.508 101.254C197.508 126.782 187.367 151.265 169.316 169.316C151.265 187.367 126.782 197.508 101.254 197.508C88.6139 197.508 76.0974 195.019 64.4193 190.182C52.7412 185.344 42.1302 178.254 33.1922 169.316C24.2542 160.378 17.1641 149.767 12.3269 138.089C7.48969 126.411 5 113.895 5 101.254C5 88.6139 7.48969 76.0974 12.3269 64.4193C17.1641 52.7412 24.2542 42.1302 33.1922 33.1922C42.1302 24.2542 52.7412 17.1641 64.4193 12.3269C76.0974 7.48969 88.6139 5 101.254 5C126.782 5 151.265 15.141 169.316 33.1922C187.367 51.2434 197.508 75.726 197.508 101.254Z" fill="#FCFCFC"/>
<path d="M172.836 95.9525C171.451 95.9525 170.335 97.0677 170.335 98.453V122.689C170.335 124.074 171.451 125.189 172.836 125.189C174.221 125.189 175.336 124.074 175.336 122.689V98.453C175.336 97.0677 174.221 95.9525 172.836 95.9525Z" fill="#E2E2E2"/>
<path fill-rule="evenodd" clip-rule="evenodd" d="M56.8799 105.467C51.9569 105.5 46.5019 107.173 39.2726 111.787C26.7345 119.79 16.027 124.014 8.33838 126.247C13.8347 146.689 25.9166 164.749 42.7136 177.632C59.5106 190.514 80.0859 197.5 101.254 197.508C122.558 197.481 143.25 190.387 160.089 177.339C176.928 164.29 188.963 146.023 194.307 125.401C188.487 128.134 182.823 131.563 178.184 135.851C160.629 152.079 141.542 115.068 104.9 115.615C78.5634 116.008 69.4609 105.383 56.8799 105.467Z" fill="#F5F5F5"/>
<path d="M164.837 104.335C164.837 105.72 165.953 106.835 167.338 106.835H171.57C172.955 106.835 174.07 105.72 174.07 104.335C174.07 102.95 172.955 101.834 171.57 101.834H167.338C165.953 101.834 164.837 102.95 164.837 104.335Z" fill="#E2E2E2"/>
<path d="M185.826 108.156C186.709 108.156 187.421 108.867 187.421 109.751V125.205C187.421 126.089 186.709 126.8 185.826 126.8C184.943 126.8 184.231 126.089 184.231 125.205V109.751C184.231 108.867 184.943 108.156 185.826 108.156Z" fill="#E2E2E2"/>
<path fill-rule="evenodd" clip-rule="evenodd" d="M145.766 105.467C150.689 105.5 156.144 107.173 163.373 111.787C175.911 119.79 186.618 124.014 194.307 126.247C188.811 146.689 176.729 164.749 159.932 177.632C143.135 190.514 122.56 197.5 101.391 197.508C80.088 197.481 59.3956 190.387 42.5564 177.339C25.7172 164.29 13.6827 146.023 8.33838 125.401C14.1588 128.134 19.8226 131.563 24.4612 135.851C42.0166 152.079 61.1033 115.068 97.7455 115.615C124.082 116.008 133.185 105.383 145.766 105.467Z" fill="#F0F0F0"/>
<path d="M190.927 113.501C190.927 114.385 190.215 115.096 189.332 115.096H186.634C185.75 115.096 185.039 114.385 185.039 113.501C185.039 112.618 185.75 111.907 186.634 111.907H189.332C190.215 111.907 190.927 112.618 190.927 113.501Z" fill="#E2E2E2"/>
<path d="M186.818 117.242C186.818 118.126 186.107 118.837 185.223 118.837H182.525C181.641 118.837 180.93 118.126 180.93 117.242C180.93 116.359 181.641 115.648 182.525 115.648H185.223C186.107 115.648 186.818 116.359 186.818 117.242Z" fill="#E2E2E2"/>
<path d="M157.527 110.402C150.959 110.402 146.55 115.542 146.55 121.269V128.733C146.55 130.727 144.922 132.355 142.927 132.355H142.854C140.86 132.355 139.232 130.727 139.232 128.733V103.084C139.232 94.9974 132.682 88.4479 124.596 88.4479C116.51 88.4479 109.96 94.9974 109.96 103.084V143.369C109.96 145.363 108.332 146.991 106.338 146.991H106.265C104.271 146.991 102.643 145.363 102.643 143.369V135.904C102.643 129.962 97.9957 125.037 91.6658 125.037C85.3962 125.037 80.689 129.9 80.689 135.904V154.583C80.689 176.573 109.96 168.633 109.96 190.898V198.216H139.232V176.262C139.232 153.998 168.503 161.938 168.503 139.947V121.269C168.503 115.268 163.527 110.402 157.527 110.402Z" fill="#E2E2E2"/>
</g>
</g>
<defs>
<filter id="filter0_d" x="0" y="0" width="202.508" height="202.508" filterUnits="userSpaceOnUse" color-interpolation-filters="sRGB">
<feFlood flood-opacity="0" result="BackgroundImageFix"/>
<feColorMatrix in="SourceAlpha" type="matrix" values="0 0 0 0 0 0 0 0 0 0 0 0 0 0 0 0 0 0 127 0"/>
<feOffset/>
<feGaussianBlur stdDeviation="2.5"/>
<feColorMatrix type="matrix" values="0 0 0 0 0 0 0 0 0 0 0 0 0 0 0 0 0 0 0.25 0"/>
<feBlend mode="normal" in2="BackgroundImageFix" result="effect1_dropShadow"/>
<feBlend mode="normal" in="SourceGraphic" in2="effect1_dropShadow" result="shape"/>
</filter>
</defs>
</svg>
