<svg viewBox="0 0 211 98" fill="none" xmlns="http://www.w3.org/2000/svg">
<style>.craftercms-create-project-git-logo-text{fill:black}@media(prefers-color-scheme: dark){.craftercms-create-project-git-logo-text{fill:white}}</style>
<path class="craftercms-create-project-git-logo-text" d="M123.555 36.9906C119.51 36.9906 116.498 38.9838 116.498 43.7808C116.498 47.3951 118.483 49.9047 123.337 49.9047C127.451 49.9047 130.245 47.4714 130.245 43.6316C130.245 39.2797 127.745 36.9906 123.555 36.9906ZM115.468 70.8629C114.511 72.0414 113.557 73.2945 113.557 74.7722C113.557 77.7218 117.305 78.6095 122.452 78.6095C126.717 78.6095 132.525 78.3094 132.525 74.3305C132.525 71.9651 129.731 71.8193 126.2 71.5971L115.468 70.8629ZM137.23 37.2135C138.551 38.9109 139.95 41.2729 139.95 44.6668C139.95 52.8568 133.553 57.6521 124.292 57.6521C121.937 57.6521 119.805 57.3579 118.483 56.9891L116.056 60.8993L123.26 61.341C135.98 62.1549 143.477 62.5245 143.477 72.3339C143.477 80.8215 136.053 85.6151 123.26 85.6151C109.954 85.6151 104.881 82.2212 104.881 76.3924C104.881 73.0715 106.352 71.3046 108.925 68.8654C106.498 67.8362 105.69 65.9922 105.69 63.9989C105.69 62.3745 106.498 60.8993 107.823 59.4961C109.146 58.0964 110.616 56.6923 112.38 55.0696C108.778 53.2985 106.058 49.4612 106.058 44.0004C106.058 35.5162 111.646 29.6891 122.892 29.6891C126.054 29.6891 127.966 29.9807 129.657 30.4267H143.994V36.6964L137.23 37.2135Z"/>
<path class="craftercms-create-project-git-logo-text" d="M156.928 23.8052C152.737 23.8052 150.311 21.3685 150.311 17.1608C150.311 12.9589 152.737 10.6698 156.928 10.6698C161.193 10.6698 163.619 12.9589 163.619 17.1608C163.619 21.3685 161.193 23.8052 156.928 23.8052ZM147.443 68.1473V62.3211L151.193 61.8064C152.223 61.6572 152.369 61.4368 152.369 60.3278V38.6345C152.369 37.8248 152.15 37.306 151.412 37.0864L147.443 35.6832L148.251 29.7086H163.471V60.3278C163.471 61.5105 163.542 61.6572 164.648 61.8064L168.397 62.3211V68.1473H147.443Z"/>
<path class="craftercms-create-project-git-logo-text" d="M197.47 65.2868C194.308 66.8349 189.677 68.2372 185.484 68.2372C176.736 68.2372 173.429 64.6993 173.429 56.3575V37.0262C173.429 36.5845 173.429 36.2886 172.838 36.2886H167.693V29.7213C174.165 28.982 176.736 25.7349 177.544 17.6924H184.53V28.1732C184.53 28.6878 184.53 28.9108 185.118 28.9108H195.483V36.2886H184.53V53.9225C184.53 58.2761 185.56 59.9718 189.528 59.9718C191.589 59.9718 193.719 59.4563 195.483 58.7924L197.47 65.2868Z"/>
<path fill="#DE4C36" d="M88.5383 45.9232L54.9232 12.1882C52.9887 10.245 49.8488 10.245 47.9118 12.1882L40.9316 19.1938L49.7863 28.0807C51.8441 27.383 54.2035 27.851 55.844 29.4975C57.4921 31.1541 57.955 33.5424 57.2429 35.6145L65.7765 44.1793C67.8411 43.4654 70.2233 43.9275 71.8722 45.585C74.1767 47.897 74.1767 51.6444 71.8722 53.9581C69.5669 56.2718 65.8331 56.2718 63.527 53.9581C61.7935 52.2167 61.3653 49.6613 62.2429 47.518L54.2846 39.5306L54.2837 60.5499C54.8455 60.8297 55.376 61.2019 55.844 61.6699C58.1484 63.9819 58.1484 67.7293 55.844 70.0447C53.5387 72.3576 49.8032 72.3576 47.5012 70.0447C45.1968 67.7293 45.1968 63.9819 47.5012 61.6699C48.0706 61.0993 48.7295 60.6678 49.4323 60.3778V39.1627C48.7295 38.8744 48.0714 38.4454 47.5012 37.8706C45.7551 36.1207 45.3353 33.5492 46.2299 31.3974L37.5019 22.636L14.453 45.7672C12.516 47.7122 12.516 50.8635 14.453 52.8067L48.0681 86.5426C50.0034 88.4858 53.1425 88.4858 55.0803 86.5426L88.5383 52.9636C90.4745 51.0195 90.4745 47.8665 88.5383 45.9232Z"/>
</svg>
