<svg width="185" height="78" viewBox="0 0 185 78" fill="none" xmlns="http://www.w3.org/2000/svg">
<path d="M110.555 26.9906C106.51 26.9906 103.498 28.9838 103.498 33.7808C103.498 37.3951 105.483 39.9047 110.337 39.9047C114.451 39.9047 117.245 37.4714 117.245 33.6316C117.245 29.2797 114.745 26.9906 110.555 26.9906ZM102.468 60.8629C101.511 62.0414 100.557 63.2945 100.557 64.7722C100.557 67.7218 104.305 68.6095 109.452 68.6095C113.717 68.6095 119.525 68.3094 119.525 64.3305C119.525 61.9651 116.731 61.8193 113.2 61.5971L102.468 60.8629ZM124.23 27.2135C125.551 28.9109 126.95 31.2729 126.95 34.6668C126.95 42.8568 120.553 47.6521 111.292 47.6521C108.937 47.6521 106.805 47.3579 105.483 46.9891L103.056 50.8993L110.26 51.341C122.98 52.1549 130.477 52.5245 130.477 62.3339C130.477 70.8215 123.053 75.6151 110.26 75.6151C96.9535 75.6151 91.8808 72.2212 91.8808 66.3924C91.8808 63.0715 93.3515 61.3046 95.9246 58.8654C93.4977 57.8362 92.6901 55.9922 92.6901 53.9989C92.6901 52.3745 93.4976 50.8993 94.8231 49.4961C96.1459 48.0964 97.6158 46.6923 99.3805 45.0696C95.7785 43.2985 93.0575 39.4612 93.0575 34.0004C93.0575 25.5162 98.6455 19.6891 109.892 19.6891C113.054 19.6891 114.966 19.9807 116.657 20.4267H130.994V26.6964L124.23 27.2135Z" fill="black"/>
<path d="M143.928 13.8052C139.737 13.8052 137.311 11.3685 137.311 7.16076C137.311 2.95893 139.737 0.6698 143.928 0.6698C148.193 0.6698 150.619 2.95893 150.619 7.16076C150.619 11.3685 148.193 13.8052 143.928 13.8052ZM134.443 58.1473V52.3211L138.193 51.8064C139.223 51.6572 139.369 51.4368 139.369 50.3278V28.6345C139.369 27.8248 139.15 27.306 138.412 27.0864L134.443 25.6832L135.251 19.7086H150.471V50.3278C150.471 51.5105 150.542 51.6572 151.648 51.8064L155.397 52.3211V58.1473H134.443Z" fill="black"/>
<path d="M184.47 55.2867C181.308 56.8349 176.677 58.2372 172.484 58.2372C163.736 58.2372 160.429 54.6992 160.429 46.3574V27.0261C160.429 26.5844 160.429 26.2885 159.838 26.2885H154.693V19.7213C161.165 18.982 163.736 15.7348 164.544 7.69232H171.53V18.1731C171.53 18.6878 171.53 18.9108 172.118 18.9108H182.483V26.2885H171.53V43.9225C171.53 48.2761 172.56 49.9717 176.528 49.9717C178.589 49.9717 180.719 49.4562 182.483 48.7924L184.47 55.2867Z" fill="black"/>
<path d="M75.5383 35.9232L41.9232 2.18825C39.9887 0.245031 36.8488 0.245031 34.9118 2.18825L27.9316 9.19383L36.7863 18.0807C38.8441 17.383 41.2035 17.851 42.844 19.4975C44.4921 21.1541 44.955 23.5424 44.2429 25.6145L52.7765 34.1793C54.8411 33.4654 57.2233 33.9275 58.8722 35.585C61.1767 37.897 61.1767 41.6444 58.8722 43.9581C56.5669 46.2718 52.8331 46.2718 50.527 43.9581C48.7935 42.2167 48.3653 39.6613 49.2429 37.518L41.2846 29.5306L41.2837 50.5499C41.8455 50.8297 42.376 51.2019 42.844 51.6699C45.1484 53.9819 45.1484 57.7293 42.844 60.0447C40.5387 62.3576 36.8032 62.3576 34.5012 60.0447C32.1968 57.7293 32.1968 53.9819 34.5012 51.6699C35.0706 51.0993 35.7295 50.6678 36.4323 50.3778V29.1627C35.7295 28.8744 35.0714 28.4454 34.5012 27.8706C32.7551 26.1207 32.3353 23.5492 33.2299 21.3974L24.5019 12.636L1.45297 35.7672C-0.484039 37.7122 -0.484039 40.8635 1.45297 42.8067L35.0681 76.5426C37.0034 78.4858 40.1425 78.4858 42.0803 76.5426L75.5383 42.9636C77.4745 41.0195 77.4745 37.8665 75.5383 35.9232Z" fill="#DE4C36"/>
</svg>
