<svg width="92" height="72" viewBox="0 0 92 72" fill="none" xmlns="http://www.w3.org/2000/svg">
<g clip-path="url(#clip0)">
<path d="M51.4983 49.3086C51.2627 49.5291 50.9792 49.692 50.6701 49.7848C50.361 49.8775 50.0347 49.8974 49.7166 49.8431C49.3985 49.7887 49.0973 49.6615 48.8365 49.4714C48.5758 49.2813 48.3625 49.0334 48.2134 48.7472L46.2782 45.0316L47.0481 43.3634L51.1968 46.0186C51.4653 46.1904 51.691 46.4213 51.8566 46.6936C52.0222 46.9659 52.1234 47.2725 52.1525 47.5898C52.1816 47.9072 52.1378 48.2271 52.0244 48.525C51.911 48.8229 51.7311 49.0909 51.4983 49.3086Z" fill="#FFB8B8"/>
<path d="M45.6934 45.5644L29.8294 37.3249C29.7562 37.2869 29.692 37.2338 29.641 37.169C29.5899 37.1043 29.5533 37.0294 29.5334 36.9494L26.0921 23.0799C25.8924 22.2751 26.0003 21.4248 26.3945 20.6954C26.7887 19.9659 27.4409 19.4098 28.2235 19.1359L29.0526 18.8457C29.2374 18.781 29.4335 18.755 29.6288 18.7691C29.8241 18.7833 30.0144 18.8374 30.188 18.9281C30.3615 19.0188 30.5146 19.1442 30.6377 19.2964C30.7608 19.4487 30.8514 19.6246 30.9038 19.8132L34.2957 32.024C34.3274 32.1383 34.3934 32.2401 34.4847 32.3157L47.4102 43.0254C47.5217 43.1178 47.5947 43.2485 47.6148 43.3919C47.6349 43.5353 47.6007 43.6811 47.519 43.8006L46.4404 45.3769C46.3603 45.494 46.2401 45.5777 46.1024 45.6123C45.9648 45.6468 45.8193 45.6298 45.6934 45.5644Z" fill="#FF0000"/>
<path d="M15.3531 59.9168L8.55212 58.2487L8.93708 54.399L15.7381 57.4787L15.3531 59.9168Z" fill="#FFB8B8"/>
<path d="M35.2427 23.987C27.5485 19.9363 19.4945 17.9021 10.8618 19.1108C13.464 14.7006 15.3967 10.6232 15.2675 7.57081C15.1831 5.57638 16.0205 3.64036 17.6246 2.45223C18.8821 1.51996 20.4062 1.01699 21.9716 1.01766H21.9716C23.3694 0.394375 24.9532 0.331409 26.3961 0.84175C27.6457 1.28301 28.5889 2.28901 29.0945 3.51396C29.3897 4.22896 30.025 4.85534 30.9467 5.40713C31.8004 5.90107 32.4959 6.62774 32.9521 7.50226C33.5592 8.7105 33.601 9.92678 32.8053 11.155C35.7846 14.2849 35.7929 18.988 35.2427 23.987Z" fill="#2F2E41"/>
<path d="M33.5272 66.0302C33.0167 66.6428 32.3277 67.0808 31.5563 67.283C30.7849 67.4852 29.9696 67.4415 29.2242 67.158C23.5659 67.6812 18.9805 63.6986 14.0698 59.9167L15.2247 56.837L5.60071 50.036L9.70696 47.4696L18.5611 44.1333L33.459 61.0476C34.0631 61.7333 34.4019 62.6125 34.4144 63.5263C34.4269 64.4401 34.1122 65.3282 33.5272 66.0302Z" fill="#2F2E41"/>
<path d="M24.3355 13.8497C27.312 13.8497 29.725 11.4368 29.725 8.46025C29.725 5.48374 27.312 3.0708 24.3355 3.0708C21.359 3.0708 18.946 5.48374 18.946 8.46025C18.946 11.4368 21.359 13.8497 24.3355 13.8497Z" fill="#FFB8B8"/>
<path d="M26.9018 20.1375L20.6141 20.7791C20.9515 17.1027 21.0843 13.7104 20.6141 11.155H26.9018C25.7077 15.2235 25.8125 18.1234 26.9018 20.1375Z" fill="#FFB8B8"/>
<path d="M18.946 40.2837L8.68042 34.7659C12.3828 30.4739 13.9484 23.7738 14.677 16.1302C14.8002 14.8376 15.7889 14.8817 17.0854 14.8121C18.4539 14.7386 19.799 14.0142 20.9992 14.7479L24.4638 18.5975L26.132 16.8011L29.4099 18.2059C29.7458 18.3498 30.018 18.6108 30.1759 18.9403C30.3339 19.2698 30.3669 19.6454 30.2688 19.9974C30.2079 26.1802 29.4589 31.614 26.2603 34.3809L23.5656 37.204L18.946 40.2837Z" fill="#FF0000"/>
<path opacity="0.2" d="M23.0522 62.2265C23.0522 62.2265 18.1558 57.6611 14.8296 57.8907L23.0522 62.2265Z" fill="black"/>
<path d="M15.1731 58.3745L14.0113 65.2801L10.1437 65.1803L11.696 57.9279L15.1731 58.3745Z" fill="#FFB8B8"/>
<path d="M17.9064 71.4543C17.6604 71.4618 17.4149 71.4262 17.1812 71.3493L10.9398 70.8247C10.285 70.5078 9.77112 69.9593 9.4975 69.2853C9.22389 68.6113 9.21004 67.8598 9.45862 67.1762L10.1561 64.7288C11.4513 65.408 12.7988 65.3115 14.0699 64.2797L19.5883 68.1469C19.8025 68.4602 19.9284 68.8253 19.9528 69.2039C19.9773 69.5826 19.8995 69.9608 19.7275 70.2991C19.5555 70.6373 19.2957 70.923 18.9753 71.1263C18.6548 71.3295 18.2857 71.4428 17.9064 71.4543Z" fill="#2F2E41"/>
<path d="M2.43652 62.1705C2.42906 61.9245 2.46461 61.6791 2.54155 61.4453L3.06615 55.2039C3.38304 54.5492 3.93155 54.0353 4.60553 53.7617C5.27951 53.488 6.03104 53.4742 6.71464 53.7228L9.16207 54.4203C8.48283 55.7154 8.57938 57.0629 9.61119 58.334L5.74395 63.8525C5.43069 64.0666 5.0656 64.1925 4.68695 64.217C4.30829 64.2415 3.93002 64.1636 3.5918 63.9917C3.25358 63.8197 2.96786 63.5598 2.76459 63.2394C2.56133 62.919 2.44801 62.5498 2.43652 62.1705Z" fill="#2F2E41"/>
<path d="M15.4814 58.7619L10.9902 58.5052L11.1185 50.6777L8.06468 50.8539C3.58324 51.1124 -0.0575891 47.1325 0.754971 42.7178C0.771702 42.6269 0.79011 42.5358 0.810193 42.4445C1.28617 40.3701 2.5271 38.5516 4.28518 37.3522L8.93705 34.1244L12.7225 35.7284L15.7219 34.1182C16.5488 33.7678 17.4523 33.6373 18.3446 33.7395C19.2369 33.8416 20.0875 34.1729 20.8138 34.7012C21.748 35.3806 22.4296 36.3514 22.7513 37.4607C23.0731 38.5701 23.0167 39.7549 22.591 40.8287L15.4814 58.7619Z" fill="#2F2E41"/>
<path opacity="0.2" d="M12.915 44.1333C12.915 44.1333 10.8619 48.2396 11.1185 50.6776L12.915 44.1333Z" fill="black"/>
<path opacity="0.2" d="M20.55 23.538L21.6743 28.6967L28.5059 34.5735L22.4749 28.4141L20.55 23.538Z" fill="black"/>
<path opacity="0.2" d="M14.2623 25.9761L16.3155 34.3169L22.3465 36.4983L16.7004 33.6753L14.2623 25.9761Z" fill="black"/>
<path d="M30.8156 8.78113C26.8435 6.95366 22.3527 6.43262 18.3685 8.39617L18.8818 3.77664L27.6076 2.36511L30.8156 8.78113Z" fill="#2F2E41"/>
<path d="M36.5901 45.7373C36.42 45.7375 36.2569 45.8052 36.1366 45.9254C36.0163 46.0457 35.9487 46.2088 35.9485 46.3789V70.2465C35.9487 70.4166 36.0163 70.5797 36.1366 70.6999C36.2569 70.8202 36.42 70.8879 36.5901 70.8881H90.8696C91.0397 70.8879 91.2028 70.8202 91.323 70.6999C91.4433 70.5797 91.511 70.4166 91.5112 70.2465V46.3789C91.511 46.2088 91.4433 46.0457 91.323 45.9254C91.2028 45.8052 91.0397 45.7375 90.8696 45.7373H36.5901Z" fill="#E6E6E6"/>
<path d="M37.2316 46.3148C37.0445 46.3151 36.8652 46.3895 36.7328 46.5218C36.6005 46.6541 36.5261 46.8335 36.5259 47.0206V69.605C36.5261 69.7921 36.6005 69.9714 36.7328 70.1037C36.8652 70.2361 37.0445 70.3105 37.2316 70.3107H90.2279C90.415 70.3105 90.5944 70.2361 90.7267 70.1037C90.859 69.9714 90.9335 69.7921 90.9337 69.605V47.0206C90.9335 46.8335 90.859 46.6541 90.7267 46.5218C90.5944 46.3895 90.415 46.3151 90.2279 46.3148H37.2316Z" fill="white"/>
<path d="M38.4097 45.459C38.174 45.6795 37.8906 45.8424 37.5815 45.9351C37.2724 46.0279 36.946 46.0478 36.628 45.9934C36.3099 45.9391 36.0087 45.8119 35.7479 45.6218C35.4871 45.4317 35.2739 45.1838 35.1248 44.8976L33.1896 41.182L33.9595 39.5138L38.1082 42.169C38.3767 42.3408 38.6023 42.5717 38.768 42.844C38.9336 43.1163 39.0348 43.4228 39.0639 43.7402C39.093 44.0576 39.0491 44.3775 38.9358 44.6754C38.8224 44.9732 38.6425 45.2413 38.4097 45.459Z" fill="#FFB8B8"/>
<path d="M32.6048 41.7147L16.7408 33.4753C16.6676 33.4373 16.6034 33.3842 16.5524 33.3194C16.5013 33.2547 16.4647 33.1798 16.4448 33.0998L13.0035 19.2303C12.8038 18.4255 12.9116 17.5752 13.3059 16.8457C13.7001 16.1163 14.3523 15.5602 15.1349 15.2863L15.964 14.9961C16.1488 14.9314 16.3449 14.9054 16.5402 14.9195C16.7355 14.9337 16.9258 14.9878 17.0993 15.0785C17.2729 15.1692 17.4259 15.2946 17.5491 15.4468C17.6722 15.599 17.7628 15.7749 17.8152 15.9636L21.2071 28.1744C21.2388 28.2886 21.3048 28.3905 21.3961 28.4661L34.3216 39.1758C34.4331 39.2682 34.506 39.3989 34.5262 39.5423C34.5463 39.6857 34.5121 39.8314 34.4303 39.951L33.3518 41.5273C33.2717 41.6444 33.1514 41.7281 33.0138 41.7627C32.8762 41.7972 32.7307 41.7801 32.6048 41.7147Z" fill="#FF0000"/>
<path d="M46.3194 57.4691C48.3918 57.4691 50.0719 55.7891 50.0719 53.7166C50.0719 51.6442 48.3918 49.9641 46.3194 49.9641C44.2469 49.9641 42.5669 51.6442 42.5669 53.7166C42.5669 55.7891 44.2469 57.4691 46.3194 57.4691Z" fill="#FF0000"/>
<path d="M54.9858 51.2148C54.8201 51.2151 54.6613 51.2811 54.5442 51.3983C54.4271 51.5156 54.3613 51.6745 54.3613 51.8403C54.3613 52.006 54.4271 52.1649 54.5442 52.2822C54.6613 52.3994 54.8201 52.4654 54.9858 52.4657H84.4697C84.6356 52.4657 84.7947 52.3998 84.912 52.2825C85.0293 52.1652 85.0952 52.0061 85.0952 51.8403C85.0952 51.6744 85.0293 51.5153 84.912 51.398C84.7947 51.2807 84.6356 51.2148 84.4697 51.2148H54.9858Z" fill="#E6E6E6"/>
<path d="M54.9859 54.9674C54.82 54.9674 54.6609 55.0333 54.5437 55.1506C54.4264 55.2679 54.3605 55.4269 54.3605 55.5928C54.3605 55.7587 54.4264 55.9178 54.5437 56.0351C54.6609 56.1523 54.82 56.2182 54.9859 56.2182H67.6729C67.7551 56.2184 67.8365 56.2023 67.9125 56.1709C67.9885 56.1395 68.0575 56.0935 68.1157 56.0354C68.1739 55.9773 68.22 55.9083 68.2515 55.8324C68.283 55.7564 68.2992 55.675 68.2992 55.5928C68.2992 55.5106 68.283 55.4292 68.2515 55.3533C68.22 55.2773 68.1739 55.2084 68.1157 55.1503C68.0575 55.0922 67.9885 55.0461 67.9125 55.0148C67.8365 54.9834 67.7551 54.9673 67.6729 54.9674H54.9859Z" fill="#E6E6E6"/>
<path d="M43.4411 60.9666C42.9654 60.9666 42.5782 61.2471 42.5782 61.592C42.5782 61.9368 42.9654 62.2174 43.4411 62.2174H84.1198C84.5956 62.2174 84.9827 61.9368 84.9827 61.592C84.9827 61.2471 84.5956 60.9666 84.1198 60.9666H43.4411Z" fill="#E6E6E6"/>
<path d="M43.4411 64.719C42.9654 64.719 42.5782 64.9996 42.5782 65.3444C42.5782 65.6892 42.9654 65.9698 43.4411 65.9698H84.1198C84.5956 65.9698 84.9827 65.6892 84.9827 65.3444C84.9827 64.9996 84.5956 64.719 84.1198 64.719H43.4411Z" fill="#E6E6E6"/>
</g>
<defs>
<clipPath id="clip0">
<rect width="90.8703" height="70.9553" fill="white" transform="translate(0.640869 0.5)"/>
</clipPath>
</defs>
</svg>
