<svg width="100" height="71" viewBox="0 0 100 71" fill="none" xmlns="http://www.w3.org/2000/svg">
<g clip-path="url(#clip0)">
<path d="M51.0722 70.3224C54.0799 70.3224 56.5181 67.8842 56.5181 64.8765C56.5181 61.8688 54.0799 59.4306 51.0722 59.4306C48.0645 59.4306 45.6263 61.8688 45.6263 64.8765C45.6263 67.8842 48.0645 70.3224 51.0722 70.3224Z" fill="#FF0000"/>
<path d="M83.6062 70.0164C86.6528 69.1014 89.8919 68.1473 92.3081 65.9721C94.4672 64.0284 95.9249 61.0603 95.0304 58.1453C94.1378 55.2362 91.464 53.2965 88.7035 52.3318C87.1378 51.7846 85.4998 51.481 83.8624 51.2425C82.0825 50.9833 80.2947 50.7709 78.5077 50.5665C71.272 49.7389 64.0091 49.2334 56.719 49.0498C53.1218 48.9592 49.5253 48.9614 45.9276 49.0137C42.7146 49.0603 39.3307 49.0591 36.35 47.6936C34.0322 46.6316 31.9285 44.6997 31.2826 42.1608C30.5371 39.2302 31.9122 36.2457 33.8848 34.1232C34.9246 33.0044 36.1398 32.0628 37.3934 31.1969C38.7534 30.2576 40.1608 29.3848 41.5986 28.5701C44.4306 26.9663 47.3914 25.6013 50.4502 24.4894C51.9591 23.9408 53.4905 23.4674 55.0351 23.0307C56.3394 22.662 57.6477 22.2927 58.9083 21.7903C61.3451 20.8191 63.6629 19.1739 64.2825 16.4768C64.8697 13.9207 63.8796 11.1457 62.1438 9.24678C60.1356 7.04985 57.1076 6.08678 54.2046 5.93095C50.9456 5.75602 47.7616 6.57167 44.6984 7.60685C41.4313 8.71094 38.2346 9.98045 34.8984 10.8748C31.5901 11.7607 28.2178 12.3876 24.8122 12.7496C23.145 12.9271 21.4274 13.1276 19.7503 12.9917C18.3448 12.8778 16.9464 12.4644 15.9105 11.4669C15.0223 10.6116 14.4932 9.43606 14.6751 8.19553C14.7081 7.97022 15.0504 8.06601 15.0176 8.28995C14.7961 9.80001 15.8226 11.1915 17.0875 11.9043C18.5494 12.7281 20.3283 12.7292 21.9558 12.635C25.4849 12.4218 28.99 11.9151 32.435 11.1201C35.82 10.347 39.0841 9.24172 42.3446 8.06106C45.4411 6.93974 48.6069 5.84532 51.9151 5.60245C54.7856 5.39171 57.8051 5.80989 60.3058 7.30998C62.5036 8.62836 64.1197 10.827 64.6346 13.35C65.1378 15.8154 64.4409 18.2968 62.5747 20.0173C60.6424 21.7986 57.993 22.5601 55.5239 23.2616C52.3922 24.1512 49.3277 25.1911 46.3615 26.5413C43.3548 27.906 40.4712 29.5272 37.7428 31.3867C35.1091 33.1865 32.5099 35.4511 31.6769 38.6618C31.2889 40.1575 31.3606 41.7437 32.0098 43.1564C32.5871 44.4125 33.5378 45.4691 34.6453 46.2841C37.2878 48.2285 40.6183 48.6278 43.8103 48.6675C47.3953 48.7121 50.9804 48.5911 54.5665 48.65C61.8749 48.7699 69.1684 49.2148 76.4469 49.9845C78.2707 50.1776 80.0923 50.3909 81.9115 50.6247C83.5478 50.8349 85.1896 51.0438 86.7984 51.4172C89.6589 52.0812 92.4424 53.3578 94.2204 55.7832C95.0095 56.8344 95.4983 58.0802 95.6348 59.3876C95.7592 60.7519 95.4252 62.1188 94.8084 63.3324C93.4431 66.0187 90.8857 67.7274 88.1699 68.8499C86.7153 69.4511 85.2065 69.9066 83.7006 70.3589C83.4812 70.4248 83.3875 70.0821 83.6062 70.0164L83.6062 70.0164Z" fill="#F2F2F2"/>
<path d="M14.9043 11.0688C16.4735 11.0688 17.7456 9.79672 17.7456 8.2275C17.7456 6.65828 16.4735 5.38617 14.9043 5.38617C13.3351 5.38617 12.063 6.65828 12.063 8.2275C12.063 9.79672 13.3351 11.0688 14.9043 11.0688Z" fill="#F2F2F2"/>
<path d="M34.616 16.4555C36.1852 16.4555 37.4573 15.1834 37.4573 13.6142C37.4573 12.045 36.1852 10.7729 34.616 10.7729C33.0468 10.7729 31.7747 12.045 31.7747 13.6142C31.7747 15.1834 33.0468 16.4555 34.616 16.4555Z" fill="#F2F2F2"/>
<path d="M51.3089 5.68214C52.8781 5.68214 54.1502 4.41003 54.1502 2.84081C54.1502 1.27159 52.8781 -0.000518799 51.3089 -0.000518799C49.7396 -0.000518799 48.4675 1.27159 48.4675 2.84081C48.4675 4.41003 49.7396 5.68214 51.3089 5.68214Z" fill="#F2F2F2"/>
<path d="M61.7271 17.7578C63.2963 17.7578 64.5684 16.4857 64.5684 14.9165C64.5684 13.3472 63.2963 12.0751 61.7271 12.0751C60.1578 12.0751 58.8857 13.3472 58.8857 14.9165C58.8857 16.4857 60.1578 17.7578 61.7271 17.7578Z" fill="#F2F2F2"/>
<path d="M47.6388 31.7277C49.208 31.7277 50.4801 30.4555 50.4801 28.8863C50.4801 27.3171 49.208 26.045 47.6388 26.045C46.0696 26.045 44.7975 27.3171 44.7975 28.8863C44.7975 30.4555 46.0696 31.7277 47.6388 31.7277Z" fill="#F2F2F2"/>
<path d="M29.7621 38.4758C31.3313 38.4758 32.6034 37.2037 32.6034 35.6345C32.6034 34.0653 31.3313 32.7931 29.7621 32.7931C28.1929 32.7931 26.9208 34.0653 26.9208 35.6345C26.9208 37.2037 28.1929 38.4758 29.7621 38.4758Z" fill="#F2F2F2"/>
<path d="M48.7044 49.0124C50.2736 49.0124 51.5457 47.7403 51.5457 46.1711C51.5457 44.6018 50.2736 43.3297 48.7044 43.3297C47.1351 43.3297 45.863 44.6018 45.863 46.1711C45.863 47.7403 47.1351 49.0124 48.7044 49.0124Z" fill="#F2F2F2"/>
<path d="M69.0672 54.9318C70.6364 54.9318 71.9085 53.6597 71.9085 52.0905C71.9085 50.5213 70.6364 49.2492 69.0672 49.2492C67.4979 49.2492 66.2258 50.5213 66.2258 52.0905C66.2258 53.6597 67.4979 54.9318 69.0672 54.9318Z" fill="#F2F2F2"/>
<path d="M92.8633 53.6295C94.4325 53.6295 95.7046 52.3574 95.7046 50.7882C95.7046 49.219 94.4325 47.9469 92.8633 47.9469C91.2941 47.9469 90.022 49.219 90.022 50.7882C90.022 52.3574 91.2941 53.6295 92.8633 53.6295Z" fill="#F2F2F2"/>
<path d="M50.4888 8.05032C41.9776 8.11044 35.0087 15.0269 34.8878 23.5375C34.8867 23.6161 34.8862 24.1686 34.8862 24.8912C34.8863 25.9507 35.3072 26.9668 36.0564 27.716C36.8055 28.4652 37.8216 28.8862 38.8811 28.8863H38.8811C39.4064 28.8862 39.9264 28.7826 40.4116 28.5814C40.8967 28.3802 41.3375 28.0854 41.7087 27.7139C42.0799 27.3423 42.3742 26.9012 42.5748 26.4158C42.7755 25.9304 42.8785 25.4103 42.8781 24.885C42.8777 24.3935 42.8774 24.0533 42.8774 24.0324C42.8771 22.7171 43.2193 21.4244 43.8701 20.2814C44.521 19.1384 45.4582 18.1846 46.5895 17.5137C47.7208 16.8428 49.0073 16.4779 50.3224 16.455C51.6375 16.4321 52.9359 16.752 54.0899 17.3831C55.2439 18.0142 56.2137 18.9348 56.904 20.0544C57.5943 21.174 57.9812 22.454 58.0267 23.7685C58.0723 25.0831 57.7748 26.3868 57.1636 27.5515C56.5525 28.7161 55.6487 29.7017 54.5411 30.4111L54.5425 30.4128C54.5425 30.4128 48.8565 34.0733 47.123 39.0949L47.1244 39.0952C46.8196 40.1239 46.6652 41.1913 46.6659 42.2642C46.6659 42.7053 46.6918 46.5643 46.7419 49.6964C46.7595 50.7771 47.2011 51.8076 47.9717 52.5656C48.7422 53.3235 49.7798 53.7482 50.8607 53.7479H50.8607C51.4038 53.7479 51.9415 53.6405 52.443 53.4319C52.9444 53.2233 53.3996 52.9175 53.7824 52.5323C54.1653 52.1471 54.4682 51.69 54.6737 51.1873C54.8792 50.6846 54.9833 50.1462 54.9799 49.6031C54.9625 46.7346 54.9531 43.3946 54.9531 43.1522C54.9531 40.0688 57.9276 36.9966 60.371 34.9931C63.1846 32.6861 65.2093 29.5422 66.0225 25.9957C66.2025 25.2655 66.3017 24.5178 66.3184 23.766C66.3184 21.6926 65.9081 19.6397 65.1112 17.7255C64.3143 15.8113 63.1464 14.0738 61.675 12.613C60.2036 11.1522 58.4577 9.99693 56.5378 9.21385C54.618 8.43078 52.5621 8.03534 50.4888 8.05032Z" fill="#FF0000"/>
<path d="M99.859 70.4717H0.140922C0.103607 70.4716 0.0678579 70.4567 0.0415103 70.4303C0.0151627 70.4039 0.000366211 70.3681 0.000366211 70.3308C0.000366211 70.2934 0.0151627 70.2576 0.0415103 70.2312C0.0678579 70.2048 0.103607 70.1899 0.140922 70.1898H99.859C99.8964 70.1898 99.9322 70.2046 99.9587 70.2311C99.9851 70.2575 100 70.2934 100 70.3308C100 70.3681 99.9851 70.404 99.9587 70.4304C99.9322 70.4569 99.8964 70.4717 99.859 70.4717Z" fill="#3F3D56"/>
<path d="M74.4013 32.3191C76.3628 32.3191 77.9529 30.729 77.9529 28.7674C77.9529 26.8059 76.3628 25.2158 74.4013 25.2158C72.4397 25.2158 70.8496 26.8059 70.8496 28.7674C70.8496 30.729 72.4397 32.3191 74.4013 32.3191Z" fill="#616161"/>
<path d="M67.8382 68.917H66.3869L65.6963 63.3186H67.8385L67.8382 68.917Z" fill="#A0616A"/>
<path d="M65.3501 68.5022H68.1492V70.2646H63.5876C63.5876 70.0332 63.6332 69.804 63.7218 69.5902C63.8104 69.3764 63.9402 69.1821 64.1038 69.0184C64.2675 68.8547 64.4618 68.7249 64.6756 68.6364C64.8895 68.5478 65.1186 68.5022 65.3501 68.5022Z" fill="#616161"/>
<path d="M79.0851 68.917H77.6338L76.9432 63.3186H79.0855L79.0851 68.917Z" fill="#A0616A"/>
<path d="M76.597 68.5022H79.3962V70.2646H74.8346C74.8346 70.0332 74.8802 69.804 74.9688 69.5902C75.0573 69.3764 75.1871 69.1821 75.3508 69.0184C75.5145 68.8547 75.7087 68.7249 75.9226 68.6364C76.1364 68.5478 76.3656 68.5022 76.597 68.5022Z" fill="#616161"/>
<path d="M73.8615 32.3398C75.4674 32.3398 76.7692 31.038 76.7692 29.4321C76.7692 27.8262 75.4674 26.5244 73.8615 26.5244C72.2556 26.5244 70.9537 27.8262 70.9537 29.4321C70.9537 31.038 72.2556 32.3398 73.8615 32.3398Z" fill="#A0616A"/>
<path d="M75.5946 41.7203L76.8956 38.731C77.2116 38.0298 77.3022 37.2477 77.1548 36.4928C77.0075 35.7379 76.6294 35.0473 76.0729 34.5164C75.9586 34.4034 75.8372 34.2978 75.7094 34.2003C75.0674 33.6981 74.2763 33.4244 73.4612 33.4225C72.9132 33.4246 72.3721 33.545 71.8748 33.7753C71.8322 33.7942 71.7908 33.8144 71.7481 33.8345C71.6664 33.8735 71.586 33.9162 71.5078 33.96C70.9981 34.2526 70.5644 34.6609 70.2415 35.152C69.9186 35.6431 69.7157 36.2032 69.6491 36.7871L69.0749 41.5984C68.9305 41.9761 63.7782 55.6144 65.5801 66.0267C65.5993 66.1379 65.6535 66.2401 65.7349 66.3182C65.8162 66.3964 65.9205 66.4465 66.0323 66.4612L67.8591 66.7098C67.9925 66.7281 68.1278 66.6951 68.2379 66.6176C68.3479 66.54 68.4245 66.4237 68.4522 66.2919L71.5173 51.6816C71.5364 51.5908 71.5854 51.509 71.6564 51.4494C71.7274 51.3897 71.8164 51.3556 71.9091 51.3525C72.0018 51.3493 72.0929 51.3774 72.1678 51.4321C72.2427 51.4868 72.2971 51.5651 72.3223 51.6544L76.653 67.0188C76.6838 67.1305 76.7504 67.2289 76.8426 67.299C76.9348 67.3692 77.0474 67.4072 77.1632 67.4072C77.1978 67.4069 77.2322 67.4038 77.2662 67.3977L79.4978 66.9679C79.6276 66.9437 79.7436 66.8718 79.8231 66.7665C79.9026 66.6611 79.9399 66.5299 79.9276 66.3985C79.5997 62.7414 77.857 44.4232 75.5946 41.7203Z" fill="#616161"/>
<path d="M62.5614 31.8519C62.5412 32.0248 62.5592 32.2 62.614 32.3652C62.6689 32.5303 62.7593 32.6815 62.8788 32.8079C62.9984 32.9344 63.1443 33.0331 63.3061 33.0971C63.468 33.1611 63.6419 33.1888 63.8156 33.1783L65.441 37.0842L66.6704 35.2617L64.9385 31.832C64.9015 31.5413 64.7592 31.2743 64.5385 31.0815C64.3178 30.8888 64.0341 30.7837 63.7411 30.7861C63.4481 30.7886 63.1661 30.8984 62.9487 31.0949C62.7313 31.2913 62.5935 31.5607 62.5614 31.8519L62.5614 31.8519Z" fill="#A0616A"/>
<path d="M73.7004 45.6533C73.8733 45.6326 74.0394 45.5743 74.1873 45.4825C74.3351 45.3907 74.461 45.2675 74.5562 45.1218C74.6513 44.976 74.7133 44.8112 74.7378 44.6389C74.7623 44.4666 74.7487 44.291 74.6981 44.1245L78.1177 41.6338L76.0589 40.8628L73.1272 43.3462C72.8531 43.4499 72.6266 43.6505 72.4906 43.9101C72.3545 44.1696 72.3184 44.47 72.3891 44.7544C72.4598 45.0388 72.6323 45.2873 72.874 45.453C73.1157 45.6187 73.4097 45.6899 73.7004 45.6533Z" fill="#A0616A"/>
<path d="M68.1256 39.6882C67.9945 39.6881 67.8637 39.6752 67.7351 39.6497C67.4241 39.5905 67.1324 39.4557 66.8857 39.2572C66.639 39.0586 66.445 38.8025 66.3207 38.5113L64.0435 35.7347C63.9954 35.676 63.9604 35.6077 63.9408 35.5343C63.9212 35.461 63.9175 35.3843 63.93 35.3094C63.9424 35.2345 63.9707 35.1631 64.013 35.1001C64.0553 35.037 64.1105 34.9837 64.1751 34.9438L65.7952 33.9409C65.855 33.9039 65.9215 33.8791 65.991 33.8679C66.0604 33.8567 66.1314 33.8594 66.1998 33.8758C66.2682 33.8922 66.3327 33.922 66.3896 33.9635C66.4464 34.0049 66.4945 34.0572 66.531 34.1174L68.1359 36.7615L71.2094 34.49C71.4542 34.3617 71.7369 34.3257 72.0059 34.3886C72.275 34.4515 72.5124 34.6091 72.6749 34.8327C72.8373 35.0562 72.9139 35.3307 72.8907 35.606C72.8675 35.8813 72.746 36.1391 72.5484 36.3323L69.4807 39.1306C69.1203 39.4879 68.6332 39.6884 68.1256 39.6882Z" fill="#616161"/>
<path d="M76.4306 43.8641C76.4265 43.8641 76.4223 43.8641 76.4181 43.864C76.3434 43.8621 76.2699 43.8447 76.2024 43.8126C76.1349 43.7806 76.0748 43.7348 76.0261 43.6781L74.5858 41.9977C74.5367 41.9405 74.5004 41.8735 74.4791 41.8012C74.4579 41.7289 74.4522 41.6529 74.4625 41.5782C74.4728 41.5035 74.4988 41.4319 74.5389 41.368C74.5789 41.3042 74.632 41.2495 74.6948 41.2077L77.3918 39.4097L74.9485 36.4722C74.8063 36.2352 74.7542 35.955 74.8016 35.6828C74.849 35.4106 74.9927 35.1645 75.2065 34.9895C75.4204 34.8145 75.69 34.7223 75.9663 34.7297C76.2425 34.7372 76.5068 34.8437 76.711 35.0299L79.6805 37.9319C79.9143 38.1454 80.0927 38.4125 80.2005 38.7101C80.3083 39.0078 80.3422 39.3271 80.2995 39.6408C80.2567 39.9544 80.1384 40.253 79.9548 40.5109C79.7712 40.7688 79.5278 40.9783 79.2454 41.1214L76.8183 43.6968C76.7685 43.7496 76.7084 43.7916 76.6417 43.8204C76.5751 43.8492 76.5032 43.864 76.4306 43.8641Z" fill="#616161"/>
<path d="M73.1222 37.6725C73.0991 37.6725 73.076 37.671 73.0531 37.6681C72.9528 37.6559 72.8581 37.6152 72.7802 37.5508C72.7024 37.4864 72.6446 37.401 72.6138 37.3048L71.5315 33.9864C71.5044 33.9025 71.5085 33.8116 71.5432 33.7306C71.5779 33.6495 71.6408 33.5837 71.7202 33.5454L71.7553 33.5289C71.7872 33.5137 71.8187 33.4987 71.8509 33.4844C72.3556 33.2503 72.905 33.1282 73.4613 33.1265C74.1836 33.1278 74.8897 33.34 75.493 33.737C75.5739 33.7908 75.6305 33.8743 75.6504 33.9694C75.6704 34.0645 75.6522 34.1636 75.5998 34.2454L73.5694 37.4263C73.5218 37.5018 73.4558 37.564 73.3776 37.6071C73.2994 37.6501 73.2115 37.6726 73.1222 37.6725Z" fill="#E6E6E6"/>
<path d="M77.2015 27.1819C77.8434 27.1819 78.3637 26.6615 78.3637 26.0197C78.3637 25.3778 77.8434 24.8575 77.2015 24.8575C76.5596 24.8575 76.0393 25.3778 76.0393 26.0197C76.0393 26.6615 76.5596 27.1819 77.2015 27.1819Z" fill="#616161"/>
<path d="M73.2175 24.7422C72.4011 24.7422 71.6182 25.0665 71.041 25.6438C70.4637 26.221 70.1394 27.004 70.1394 27.8203V29.1226H71.7411L72.5072 27.8203L72.737 29.1226H77.5979L76.2956 27.8203C76.2956 27.004 75.9713 26.221 75.3941 25.6438C74.8168 25.0665 74.0339 24.7422 73.2175 24.7422Z" fill="#616161"/>
<path d="M77.7987 25.2236C77.9272 24.8217 78.1933 24.478 78.5502 24.2529C78.907 24.0279 79.3318 23.9358 79.7498 23.9929C80.4905 24.1167 81.0761 24.712 81.425 25.377C81.7739 26.0419 81.935 26.7861 82.1696 27.4994C82.4041 28.2128 82.7368 28.93 83.329 29.3918C83.9211 29.8535 84.8298 29.9788 85.4114 29.5038C85.3449 29.9988 85.1245 30.4605 84.7814 30.8234C84.4382 31.1863 83.9896 31.4322 83.499 31.5262C83.0084 31.6202 82.5007 31.5575 82.0477 31.3472C81.5947 31.1368 81.2192 30.7894 80.9745 30.3539C80.6676 29.808 80.5884 29.1681 80.4974 28.5484C80.4064 27.9287 80.2882 27.2876 79.9218 26.7796C79.5554 26.2717 78.8696 25.9399 78.2876 26.1713L77.7987 25.2236Z" fill="#616161"/>
<path d="M40.0091 26.9966C38.9496 26.9965 37.9335 26.5755 37.1844 25.8263C36.4352 25.0771 36.0143 24.061 36.0142 23.0015C36.0142 22.2789 36.0147 21.7264 36.0158 21.6478C36.0494 19.1727 36.6728 16.7413 37.8341 14.5553C35.9261 17.1673 34.877 20.3077 34.8319 23.542C34.8308 23.6206 34.8303 24.1731 34.8303 24.8957C34.8304 25.9552 35.2513 26.9713 36.0005 27.7206C36.7496 28.4698 37.7657 28.8907 38.8253 28.8909C39.6959 28.8905 40.5426 28.606 41.2368 28.0806C41.931 27.5551 42.4347 26.8174 42.6714 25.9796C41.9399 26.6356 40.9917 26.9978 40.0091 26.9966Z" fill="#616161"/>
<path d="M50.7596 16.4684C51.9844 16.5269 53.1768 16.8818 54.2343 17.5027C55.2918 18.1235 56.1828 18.9917 56.8309 20.0328C57.4789 21.0738 57.8646 22.2566 57.9549 23.4795C58.0451 24.7025 57.8372 25.929 57.349 27.0539C58.0552 26.2246 58.5742 25.2527 58.8707 24.2046C59.1672 23.1564 59.2343 22.0567 59.0673 20.9803C58.9002 19.9039 58.5031 18.8762 57.9028 17.9672C57.3026 17.0582 56.5135 16.2893 55.5892 15.713C54.6649 15.1366 53.6271 14.7664 52.5468 14.6274C51.4664 14.4885 50.3688 14.5841 49.3287 14.9078C48.2886 15.2315 47.3306 15.7757 46.5199 16.5032C45.7092 17.2308 45.0649 18.1245 44.631 19.1236C45.381 18.2413 46.3237 17.5431 47.3862 17.0827C48.4488 16.6224 49.6029 16.4122 50.7596 16.4684Z" fill="#616161"/>
<path d="M51.9886 51.8583C50.9077 51.8585 49.8701 51.4338 49.0996 50.6759C48.329 49.9179 47.8874 48.8874 47.8698 47.8067C47.8197 44.6746 47.7938 40.8156 47.7938 40.3746C47.7931 39.3016 47.9475 38.2342 48.2523 37.2055L48.2509 37.2052C48.4309 36.6888 48.6483 36.1863 48.9013 35.7015C48.1245 36.7368 47.5063 37.882 47.067 39.0994L47.0684 39.0998C46.7636 40.1285 46.6092 41.1959 46.6099 42.2688C46.6099 42.7098 46.6358 46.5688 46.6859 49.7009C46.7035 50.7816 47.1452 51.8121 47.9157 52.5701C48.6862 53.328 49.7238 53.7527 50.8047 53.7525C51.6959 53.7523 52.563 53.4632 53.2759 52.9286C53.9889 52.3939 54.5093 51.6425 54.7591 50.787C54.0018 51.4776 53.0134 51.8597 51.9886 51.8583Z" fill="#616161"/>
<path d="M14.9811 68.9709L16.4324 68.9708L17.123 63.3725L14.9807 63.3726L14.9811 68.9709Z" fill="#FFB8B8"/>
<path d="M19.2316 70.3185L14.67 70.3187L14.6699 68.5563L17.4691 68.5562C17.9365 68.5561 18.3848 68.7418 18.7153 69.0723C19.0458 69.4028 19.2315 69.8511 19.2316 70.3185L19.2316 70.3185Z" fill="#616161"/>
<path d="M9.77196 68.9709L11.2233 68.9708L11.9138 63.3725L9.77161 63.3726L9.77196 68.9709Z" fill="#FFB8B8"/>
<path d="M14.0226 70.3185L9.46098 70.3187L9.4609 68.5563L12.2601 68.5562C12.7275 68.5561 13.1758 68.7418 13.5063 69.0723C13.8369 69.4028 14.0226 69.8511 14.0226 70.3185L14.0226 70.3185Z" fill="#616161"/>
<path d="M11.0403 67.2492L9.62263 67.1746C9.54953 67.1708 9.47791 67.1524 9.41194 67.1207C9.34596 67.089 9.28694 67.0445 9.23828 66.9898C9.18963 66.9351 9.15231 66.8713 9.12849 66.8021C9.10468 66.7329 9.09483 66.6596 9.09953 66.5866L10.794 47.826L18.5971 49.9316L19.3489 49.7265L16.9979 66.3346C16.9779 66.4596 16.9158 66.5739 16.822 66.6588C16.7282 66.7437 16.6082 66.7941 16.4819 66.8016L14.9537 66.8728C14.8773 66.8771 14.8008 66.8654 14.7291 66.8386C14.6574 66.8118 14.5921 66.7704 14.5372 66.717C14.4823 66.6637 14.4391 66.5995 14.4103 66.5286C14.3815 66.4577 14.3677 66.3816 14.3698 66.3051L14.6468 56.3372C14.648 56.2911 14.632 56.2462 14.6019 56.2113C14.5717 56.1764 14.5296 56.1541 14.4838 56.1488C14.438 56.1434 14.3918 56.1554 14.3544 56.1824C14.317 56.2094 14.2911 56.2494 14.2817 56.2946L11.6113 66.8089C11.586 66.9337 11.5184 67.0458 11.4197 67.1263C11.3211 67.2067 11.1976 67.2504 11.0703 67.25C11.0604 67.25 11.0504 67.2498 11.0403 67.2492Z" fill="#616161"/>
<path d="M15.2416 32.4759C16.8475 32.4759 18.1494 31.174 18.1494 29.5681C18.1494 27.9622 16.8475 26.6604 15.2416 26.6604C13.6357 26.6604 12.3339 27.9622 12.3339 29.5681C12.3339 31.174 13.6357 32.4759 15.2416 32.4759Z" fill="#FFB8B8"/>
<path d="M10.4004 38.1109L10.7201 45.0091L10.8357 47.5188C10.8403 47.628 10.8774 47.7334 10.9422 47.8215C11.007 47.9095 11.0967 47.9762 11.1996 48.0131L18.6979 50.7293C18.7585 50.7518 18.8226 50.7631 18.8872 50.7625C18.9611 50.7629 19.0343 50.7484 19.1024 50.7198C19.1705 50.6913 19.2322 50.6493 19.2837 50.5964C19.3352 50.5435 19.3756 50.4807 19.4023 50.4119C19.4291 50.343 19.4417 50.2695 19.4394 50.1957L19.132 37.7924C19.1118 36.7748 18.7372 35.7961 18.0728 35.0251C17.4083 34.254 16.4957 33.739 15.4923 33.5687C15.4197 33.5576 15.3459 33.5465 15.2722 33.5367C14.6499 33.4594 14.0183 33.5195 13.4218 33.7126C12.8253 33.9057 12.2783 34.2272 11.8194 34.6544C11.3441 35.0915 10.9707 35.6276 10.7255 36.2249C10.4803 36.8222 10.3693 37.466 10.4004 38.1109L10.4004 38.1109Z" fill="#CCCCCC"/>
<path d="M22.2798 49.3529C22.1024 49.2978 21.9404 49.2021 21.8066 49.0733C21.6729 48.9445 21.571 48.7863 21.5093 48.6112C21.4475 48.436 21.4276 48.2489 21.451 48.0647C21.4744 47.8805 21.5406 47.7043 21.6442 47.5502L19.1014 44.169L21.2957 44.0332L23.3739 47.2649C23.5964 47.4369 23.7512 47.6818 23.8112 47.9565C23.8712 48.2313 23.8326 48.5184 23.702 48.7675C23.5715 49.0166 23.3574 49.2118 23.0974 49.3188C22.8373 49.4258 22.5479 49.4379 22.2798 49.3529H22.2798Z" fill="#FFB8B8"/>
<path d="M20.492 46.9383C20.4246 46.911 20.3633 46.8706 20.3117 46.8194C20.2601 46.7682 20.2191 46.7073 20.1911 46.6402L16.3603 37.5131C16.2851 37.3344 16.2459 37.1426 16.2449 36.9488C16.2439 36.7549 16.2811 36.5627 16.3543 36.3833C16.4276 36.2038 16.5356 36.0405 16.672 35.9027C16.8084 35.765 16.9706 35.6555 17.1494 35.5804C17.3281 35.5054 17.5199 35.4663 17.7138 35.4655C17.9076 35.4646 18.0998 35.5019 18.2792 35.5754C18.4586 35.6488 18.6218 35.7568 18.7595 35.8934C18.8971 36.0299 19.0065 36.1922 19.0814 36.371L22.9122 45.4982C22.9689 45.6335 22.9695 45.7858 22.914 45.9216C22.8585 46.0574 22.7514 46.1656 22.6162 46.2225L20.9155 46.9363C20.8486 46.9647 20.7766 46.9794 20.7039 46.9798C20.6312 46.9801 20.5592 46.966 20.492 46.9384L20.492 46.9383Z" fill="#CCCCCC"/>
<path d="M14.3068 46.6164L17.9862 39.5712C18.0572 39.4357 18.179 39.3339 18.3249 39.2881C18.4708 39.2423 18.6289 39.2563 18.7646 39.327L24.1053 42.1162C24.2408 42.1872 24.3426 42.309 24.3884 42.4549C24.4342 42.6008 24.4202 42.759 24.3496 42.8946L20.6701 49.9398C20.5992 50.0753 20.4774 50.1771 20.3315 50.2229C20.1855 50.2687 20.0274 50.2547 19.8917 50.1841L14.5511 47.3948C14.4156 47.3239 14.3138 47.2021 14.268 47.0561C14.2222 46.9102 14.2361 46.7521 14.3068 46.6164Z" fill="#616161"/>
<path d="M16.7743 43.3976C16.7089 43.2239 16.6038 43.0678 16.4674 42.9418C16.3309 42.8159 16.1669 42.7236 15.9884 42.6723C15.81 42.621 15.622 42.6121 15.4395 42.6464C15.257 42.6806 15.085 42.7571 14.9373 42.8696L11.4119 40.5309L11.4059 42.7294L14.7546 44.6132C14.9395 44.8251 15.193 44.9652 15.4709 45.0089C15.7487 45.0525 16.033 44.997 16.274 44.852C16.5149 44.707 16.6971 44.4817 16.7886 44.2158C16.8801 43.9499 16.8751 43.6602 16.7743 43.3976Z" fill="#FFB8B8"/>
<path d="M12.317 43.892L9.4358 41.6098C9.12411 41.5051 8.84248 41.3264 8.61507 41.0889C8.38766 40.8515 8.22127 40.5624 8.13019 40.2464C8.0391 39.9305 8.02604 39.5972 8.09213 39.2751C8.15821 38.953 8.30147 38.6518 8.5096 38.3973L11.1256 34.9688C11.3074 34.7466 11.5631 34.5973 11.8459 34.5482C12.1287 34.499 12.4198 34.5533 12.6659 34.701C12.912 34.8488 13.0967 35.0802 13.1863 35.3529C13.2758 35.6256 13.2642 35.9215 13.1536 36.1863L11.0837 39.5723L14.1256 41.0151C14.1963 41.0486 14.2591 41.0968 14.3099 41.1564C14.3606 41.216 14.3981 41.2857 14.4199 41.3609C14.4417 41.4361 14.4473 41.5151 14.4363 41.5926C14.4254 41.6701 14.3981 41.7444 14.3562 41.8106L13.1283 43.7538C13.0868 43.8194 13.032 43.8755 12.9674 43.9186C12.9028 43.9616 12.8299 43.9907 12.7534 44.0037C12.7504 44.0043 12.7473 44.0047 12.7443 44.0052C12.6691 44.0166 12.5924 44.0124 12.5189 43.9929C12.4454 43.9734 12.3767 43.9391 12.317 43.892Z" fill="#CCCCCC"/>
<path d="M13.0444 31.5152C13.032 31.4787 13.028 31.4398 13.0329 31.4015C13.0377 31.3633 13.0513 31.3266 13.0725 31.2944C13.0937 31.2622 13.122 31.2353 13.1553 31.2157C13.1885 31.1961 13.2257 31.1844 13.2642 31.1814C13.343 31.1857 13.42 31.2059 13.4908 31.2408C13.5615 31.2757 13.6244 31.3246 13.6757 31.3845C13.781 31.5058 13.9035 31.611 14.0393 31.6967C14.18 31.7676 14.3708 31.7575 14.4509 31.6223C14.5262 31.4953 14.4747 31.3254 14.4291 31.1779C14.3131 30.8028 14.2482 30.4137 14.2361 30.0213C14.223 29.5832 14.2848 29.126 14.5273 28.7843C14.8403 28.3434 15.4 28.1759 15.9297 28.1881C16.4593 28.2002 16.9804 28.3637 17.5051 28.4671C17.6862 28.5028 17.8991 28.521 18.0203 28.3806C18.1491 28.2314 18.1018 27.9898 18.047 27.7882C17.9048 27.2653 17.754 26.7246 17.4236 26.3022C17.0664 25.8633 16.5562 25.5761 15.9958 25.4983C15.4577 25.4317 14.9114 25.4937 14.402 25.6793C13.5719 25.9409 12.8416 26.4497 12.3085 27.1376C11.759 27.8693 11.5216 28.7887 11.6481 29.6949C11.7717 30.4841 12.19 31.1972 12.8185 31.6903L13.0444 31.5152Z" fill="#616161"/>
<path d="M49.8722 68.994C49.0985 68.6571 48.4138 68.145 47.872 67.4981C47.3302 66.8512 46.9462 66.0872 46.7502 65.2665C46.5542 64.4458 46.5517 63.5907 46.7427 62.7688C46.9338 61.9469 47.3133 61.1807 47.8512 60.5306C47.2275 60.9859 46.7078 61.5688 46.3266 62.2403C45.9454 62.9119 45.7114 63.6569 45.6401 64.4258C45.5688 65.1948 45.6618 65.9701 45.9131 66.7003C46.1643 67.4305 46.568 68.0989 47.0974 68.6612C47.6267 69.2235 48.2695 69.6668 48.9833 69.9616C49.697 70.2564 50.4653 70.3961 51.2371 70.3713C52.009 70.3465 52.7667 70.1579 53.4601 69.8179C54.1534 69.4778 54.7665 68.9942 55.2587 68.3991C54.491 68.9602 53.5898 69.3104 52.6447 69.4147C51.6997 69.5191 50.7437 69.3741 49.8722 68.994Z" fill="#3F3D56"/>
</g>
<defs>
<clipPath id="clip0">
<rect width="100" height="70.4722" fill="white" transform="translate(0 -0.000518799)"/>
</clipPath>
</defs>
</svg>
